<svg id="eW9iBSfGR5A1" xmlns="http://www.w3.org/2000/svg" xmlns:xlink="http://www.w3.org/1999/xlink" viewBox="0 0 1200 1000" shape-rendering="geometricPrecision" text-rendering="geometricPrecision"><style><![CDATA[#eW9iBSfGR5A46 {animation: eW9iBSfGR5A46_s_da 8000ms linear infinite reverse forwards}@keyframes eW9iBSfGR5A46_s_da { 0% {stroke-dasharray: 0, 0, 25, 1500} 12.5% {stroke-dasharray: 0, 700, 200, 546.67} 25% {stroke-dasharray: 0, 1550, 25, 0} 27.5% {stroke-dasharray: 0, 1550, 0, 0} 100% {stroke-dasharray: 0, 1550, 0, 0}} #eW9iBSfGR5A47 {animation: eW9iBSfGR5A47_s_da 8000ms linear infinite reverse forwards}@keyframes eW9iBSfGR5A47_s_da { 0% {stroke-dasharray: 0, 2750, 0, 0} 47.5% {stroke-dasharray: 0, 2750, 0, 0} 51.25% {stroke-dasharray: 0, 2750, 45, 0} 66.25% {stroke-dasharray: 0, 1150, 172.5, 1370} 81.25% {stroke-dasharray: 0, 0, 20, 2730} 83.75% {stroke-dasharray: 0, 0, 0, 2730} 100% {stroke-dasharray: 0, 0, 0, 2730}}]]></style><path d="M112.03,778.854l27.013,3.1c5.853,13.182,8.439,27.61,7.533,42.033-14.684-20.956-45.746-20.62-66.388-35.569-12.97-9.545-20.946-24.544-21.677-40.758l-8.92-17.303c25.709-2.849,51.362,5.84,70.198,23.778c5.174,5.024,9.701,10.689,13.475,16.859-10.629,3.258-21.234,7.86-21.234,7.86Z" transform="matrix(-1 0 0-1 196.344 1553.81)" fill="#f2f2f2"/><path d="M120.741,751.185l22.811,14.969c-.569,14.441-4.611,28.522-11.776,41.022-3.91-25.385-31.861-39.107-43.749-61.805-7.403-14.399-7.934-31.424-1.444-46.268l-.361-19.512c24.266,9.056,43.398,28.413,52.354,52.972c2.417,6.832,3.974,13.947,4.633,21.172-10.949-1.882-22.468-2.55-22.468-2.55Z" transform="matrix(-1 0 0-1 225.621 1486.77)" fill="#f2f2f2"/><path d="M204.031,752.05c-63.781,0-103.644,69.891-71.754,125.803c31.891,55.912,111.618,55.912,143.509,0c7.272-12.749,11.1-27.212,11.1-41.934-.052-46.298-37.116-83.816-82.855-83.869Zm0,165.713c-62.242,0-101.144-68.203-70.023-122.767c31.122-54.564,108.926-54.564,140.047,0c7.097,12.442,10.833,26.557,10.833,40.923-.05,45.181-36.222,81.794-80.857,81.844Z" transform="matrix(-1 0 0-1 407.939 1671.84)" fill="#3f3d56"/><path d="M180.622,800.864c-.175,0-.349.005-.524.014-3.12.153-6.018,1.677-7.935,4.173l-13.68,17.802c-3.633,4.726-2.792,11.538,1.878,15.214l.491.388c4.669,3.68,11.403,2.828,15.034-1.902c2.937-3.816,8.54-4.093,11.829-.582l27.775,29.68c4.071,4.341,10.844,4.527,15.142.417l.456-.439c4.295-4.118,4.478-10.981.407-15.326L188.394,804.25c-2.021-2.162-4.832-3.387-7.772-3.386Z" transform="matrix(-1 0 0-1 390.658 1669.9)" fill="#6c63ff"/><polygon points="268.837,897.892 257.485,896.612 246.729,941.194 263.483,943.084 268.837,897.892" transform="matrix(-1 0 0-1 515.566 1839.7)" fill="#a0616a"/><path d="M287.47,892.731c-.352.356-.734.701-1.115,1.03-2.93,2.46-5.991,4.755-9.17,6.873-3.597,2.426-7.644,4.902-12.222,7.458-2.215,1.24-4.558,2.504-7.025,3.795-1.237.646-2.508,1.298-3.816,1.954-.055.033-.113.063-.171.09l-.378.196-27.551-23.021-1.956-1.557l5.074-6.334c0,0-.441-5.036-.431-5.039l-5.038-12.724-.055-.027-17.948-8.292-18.497-8.547-9.934-4.594c-4.653-2.145-8.261-6.092-10.015-10.953-1.845-5.05-1.609-10.638.653-15.511.222-.491.472-.984.737-1.458l4.128-26.273c2.466-15.714,7.26-30.961,14.222-45.226l6.305-24.594.957.487l14.26,7.23l3.767,1.905.712,16.524c.08,1.884.092,3.778.026,5.668-.098,3.093-.39,6.177-.874,9.233l-8.176,51.53c1.45.599,2.881,1.2,4.293,1.805c6.543,2.771,12.738,5.573,18.584,8.404c19.014,9.198,34.503,18.748,47.159,29.091c3.557,2.901,6.893,5.871,10.008,8.909c1.145,1.111,2.259,2.232,3.344,3.363.257.261.509.519.756.784c4.529,4.81,6.334,11.619,4.794,18.078-.849,3.703-2.724,7.083-5.407,9.743Z" transform="matrix(-1 0 0-1 459.407 1634.1)" fill="#2f2e41"/><path d="M266.748,964.802l-12.289-1.376-1.928-.214l1.254-7.386-14.281-14.123c-2.55-2.516-1.452-6.883,1.977-7.86.662-.189,1.357-.225,2.035-.108l20.281,3.516l2.255,7.913l2.603-7.07l7.64,1.323-6.559,25.715-2.988-.33Z" transform="matrix(-1 0 0-1 514.4 1898.8)" fill="#2f2e41"/><path d="M249.058,615.413l10.522,11.295-14.844,32.874-2.207,11.547c-1.257,6.574-9.058,9.328-14.081,4.97-3.531-3.063-4.027-8.408-1.122-12.083l8.195-10.37l13.537-38.233Z" transform="matrix(-1 0 0-1 485.015 1293.62)" fill="#a0616a"/><path d="M192.881,665.8l-11.993-12.139l2.295-17.748c1.486-4.712,5.3-8.293,10.054-9.439c5.915-1.425,12.058,1.192,15.186,6.469l26.974,46.8c3.976,6.706,1.939,15.399-4.589,19.584-7.152,4.585-16.654,1.875-20.389-5.816L193.955,658l-1.074,7.8Z" transform="matrix(-1 0 0-1 418.316 1327.66)" fill="#e6e6e6"/><path d="M271.694,811.437c-.619-.639-1.24-1.27-1.869-1.903-1.251-1.264-2.519-2.516-3.791-3.753-.64-.62-1.286-1.241-1.928-1.853l.005-.023-.042-.018-.013-.011-1.067-.557-2.654,3.958-1.225,1.823-1.73,2.582-3.171,4.723-16.692,24.871l14.97,7.822l1.179-2.322.007.002.583-1.151l10.948-21.472l2.235-4.39.071-.133l1.342-2.621l1.159-2.272l1.294-2.539.389-.763Z" transform="matrix(-1 0 0-1 509.211 1652.42)" fill="#a0616a"/><path d="M235.57,870.445l-10.42-6.735-1.637-1.055l4.353-6.064-6.639-19.059c-1.187-3.399,1.706-6.824,5.208-6.165.675.127,1.315.405,1.872.814l16.653,12.234-1.433,8.106l5.422-5.176l6.274,4.607-17.118,20.127-2.535-1.634Z" transform="matrix(-1 0 0-1 476.179 1703.36)" fill="#2f2e41"/><path d="M1055.568,147.616l8.139,9.201c2.885,3.261,2.393,8.003-1.114,10.72-4.99,3.867-12.737,1.425-13.986-4.41l-2.193-10.244-8.322-20.315l9.986-4.515l7.49,19.563Z" transform="matrix(-.99863 0.052336-.052336-.99863 2110.02 242.209)" fill="#ffb8b8"/><path d="M1096.569,164.112l-16.352,31.507c-3.71,6.825-13.148,9.229-20.252,5.161-6.484-3.714-8.507-11.427-4.559-17.377l26.793-41.525c3.106-4.681,9.21-7.003,15.085-5.739c4.721,1.017,8.509,4.194,9.985,8.376l10.104,28.626-13.314,6.018-7.49-15.047Z" transform="matrix(-.99863 0.052336-.052336-.99863 2178.14 281.528)" fill="#2f2e41"/><path d="M1047.176,109.682l-10.714.812c-3.501.27-6.101,3.05-5.811,6.218l4.121,44.447c.299,3.167,3.374,5.517,6.876,5.255l10.712-.812c3.502-.269,6.103-3.05,5.813-6.216l-4.122-44.448c-.298-3.167-3.374-5.518-6.875-5.256Z" transform="matrix(-.99863 0.052336-.052336-.99863 2094.62 221.246)" fill="#3f3d56"/><path d="M1042.594,163.233c-1.888.141-3.545-1.125-3.706-2.832l-4.121-44.448c-.157-1.706,1.244-3.205,3.131-3.349l10.714-.812c1.887-.141,3.545,1.125,3.705,2.831l4.121,44.448c.156,1.706-1.245,3.204-3.131,3.35l-10.713.812Z" transform="matrix(-.99863 0.052336-.052336-.99863 2096.97 220.114)" fill="#6c63ff"/><rect width="44.482" height="40.22" rx="0" ry="0" transform="matrix(-.99863 0.052336 0.052336 0.99863 1118.504344 202.730398)" fill="#ffb8b8"/><circle r="2.406" transform="matrix(-.989244 0.051845 0.046879 0.894494 1065.153676 199.923947)" fill="#2f2e41"/><polygon points="1016.009,336.523 1027.896,336.524 1033.552,377.985 1016.007,377.985 1016.009,336.523" transform="matrix(-.99863 0.052336-.052336-.99863 2066.85 660.386)" fill="#ffb6b6"/><path d="M1001.499,397.683l18.792,1.014v-7.279l17.866-11.158c3.185-1.989,2.797-6.351-.702-7.85-.674-.29-1.41-.439-2.156-.439h-22.372l-3.856,7.2-1.506-7.2h-8.436l2.37,25.712Z" transform="matrix(-.99863 0.052336-.052336-.99863 2058.23 716.771)" fill="#2f2e41"/><polygon points="1084.876,373.45 1095.068,367.919 1123.514,400.836 1108.472,409 1084.876,373.45" transform="matrix(-.99863 0.052336-.052336-.99863 2227.21 718.597)" fill="#ffb6b6"/><path d="M1119.179,435.089l16.689-7.875-4.143-6.242l8.967-17.881c1.601-3.187-1.218-6.746-5.069-6.404-.742.066-1.46.28-2.1.627l-19.18,10.411.792,7.969-5.391-5.473-7.232,3.925l16.667,20.943Z" transform="matrix(-.99863 0.052336-.052336-.99863 2263.89 772.471)" fill="#2f2e41"/><path d="M1076.477,385.527l-47.653,5.142l1.371-8.17c0,0-32.269-23.511-10.179-49.454l10.664-9.404-.982-4.42h6.849l.736-5.332l29.46-22.05l1.691-4.512h4.852l-2.371-5.13-21.873-45.998l18.122-7.639l33.374,57.851-8.549,17.437-30.753,35.196l47.633-17.013.811-3.735l4.38.75-.846-5.496l9.294-43.244l19.688,2.362-2.024,53.809c-.31,5.987-4.147,11.365-10.053,14.087-10.093,4.688-47.374,17.711-47.374,17.711l-6.268,27.252Z" transform="matrix(-.99863 0.052336-.052336-.99863 2169.21 562.426)" fill="#2f2e41"/><path d="M1102.984,230.37l-8.972,10.427-12.798.501-1.278-9.806-6.34-2.645c-6.332-21.75-7.31-44.492-2.865-66.621c1.731-1.472,2.446-3.678,1.866-5.762l-.41-1.482.037-.054c1.35-1.925,1.807-4.254,1.275-6.481l-11.592-18.626c24.617-9.073,42.663,7.847,59.381,30.02l10.348,32.385-28.652,38.144Z" transform="matrix(-.99863 0.052336-.052336-.99863 2201.69 310.967)" fill="#3f3d56"/><path d="M204.031,752.05c-63.781,0-103.644,69.891-71.754,125.803c31.891,55.912,111.618,55.912,143.509,0c7.272-12.749,11.1-27.212,11.1-41.934-.052-46.298-37.116-83.816-82.855-83.869Zm0,165.713c-62.242,0-101.144-68.203-70.023-122.767c31.122-54.564,108.926-54.564,140.047,0c7.097,12.442,10.833,26.557,10.833,40.923-.05,45.181-36.222,81.794-80.857,81.844Z" transform="matrix(-1 0 0-1 407.939 1671.84)" fill="#3f3d56"/><polygon points="1091.21,134.44 1093.625,156.29 1061.549,199.225 1060.229,198.42 1091.984,155.915 1089.625,134.583 1091.21,134.44" transform="matrix(-.99863 0.052336-.052336-.99863 2161.11 277.074)" fill="#2f2e41"/><circle r="23.838" transform="matrix(-.989244 0.051845 0.046879 0.894494 1094.726894 105.87057)" fill="#ffb8b8"/><path d="M1103.592,135.122l-2.969-.084-1.009-.03-11.299-.324c-10.016-.287-17.845-8.78-17.487-18.968-7.318-7.079-4.747-15.609,1.573-24.691c10.865-.908,21.54-3.164,31.724-6.706l1.232,5.547l3.067-7.17c2.541-1.024,5.063-2.151,7.569-3.383-3.299,12.113-4.907,24.243-3.269,33.75l5.175.149-.18,5.12l1.937-5.07l9.38.269c-.432,12.314-11.823,21.982-25.444,21.591Z" transform="matrix(-.99863 0.052336-.052336-.99863 2199.53 156.85)" fill="#2f2e41"/><circle r="11.226" transform="matrix(-.989244 0.051845 0.046879 0.894494 1110.636126 77.89863)" fill="#2f2e41"/><path d="M1049.192,158.736l8.139,9.2c2.886,3.261,2.392,8.003-1.113,10.721-4.99,3.867-12.738,1.424-13.987-4.409l-2.194-10.246-8.32-20.314l9.986-4.515l7.489,19.563Z" transform="matrix(-.99863 0.052336-.052336-.99863 2097.86 264.767)" fill="#ffb8b8"/><path d="M1090.194,175.231l-16.352,31.507c-3.709,6.825-13.146,9.23-20.252,5.162-6.485-3.714-8.508-11.426-4.558-17.377l26.792-41.525c3.105-4.681,9.21-7.003,15.084-5.739c4.722,1.016,8.51,4.193,9.986,8.376l10.104,28.626-13.314,6.019-7.49-15.049Z" transform="matrix(-.99863 0.052336-.052336-.99863 2165.98 304.086)" fill="#2f2e41"/><path d="M299.616,773.417c-1.038-1.687-2.097-3.364-3.164-5.027-1.983-3.095-4.02-6.144-6.108-9.148c0-.008-.008-.008-.015-.015-1.219-1.143-2.565-2.138-4.012-2.966-.061-.045-.128-.076-.189-.114-1.066-.596-2.199-1.057-3.376-1.372-.424-.107-.856-.214-1.279-.321-1.529-.369-3.043-.682-4.549-.958-2.68-.483-5.329-.828-7.963-1.042-.212-.023-.424-.039-.636-.054-10.831-.804-21.375.491-32.38,2.613-5.435,1.042-10.983,2.291-16.728,3.586-1.877.429-3.761.85-5.669,1.272-.144.03-.295.068-.447.099-2.724.606-5.494,1.203-8.333,1.793-3.573.743-1.741.786-5.572,1.468c0,0,8.837-9.083,10.305-13.021c1.635-4.842,2.93-8.673.197-16.648l8.486-16.863-29.501-5.064c-16.259,32.25-29.253,53.486-23.449,65.994.023.581.068,1.171.144,1.754.623,5.347,3.342,10.217,7.546,13.515c4.03,3.187,9.152,4.605,14.223,3.938l5.79-.758l44.908,2.208l1.763,7.278.326.123l10.347,3.839l35.787,13.278.09.03l2.354.873.28-.459c.084-.138.167-.276.243-.414c2.326-4.222,4.22-8.673,5.653-13.285c2.41-7.534,4.394-15.2,5.942-22.963.068-.337.129-.643.182-.919l.022-.084c.023-.131.038-.215.046-.238.825-3.478.25-7.722-1.264-11.928Z" transform="matrix(-1 0 0-1 465.084 1535.34)" fill="#2f2e41"/><line x1="260.317" y1="851.711" x2="259.605" y2="851.711" transform="matrix(-1 0 0-1 519.922 1703.42)" fill="#2f2e41"/><path d="M218.42,733.647l-.259,14.52-22.726,2.676-2.383-12.261-23.886-22.72c-16.982-21.015-4.642-35.508-3.902-37.663l2.099-26.499l1.321-9.207-5.158-25.198l65.109-14.137c2.085,17.42-.236,33.606-13.829,46.635l6.869,21.634c3.482,5.647,5.664,12.016,6.388,18.634l.247,2.262c6.069,19.142,2.474,25.587-9.89,41.324Z" transform="matrix(-1 0 0-1 391.44 1354)" fill="#e6e6e6"/><path d="M198.394,571.542c.016-.375.023-.75.023-1.118-.028-17.468-16.882-29.828-33.288-24.411l-4.67,1.541c-.038.015-.084.022-.122.038l-7.697,2.543c-.026.33-.021.661.015.989-11.483,4.965,4.39,21.276,8.333,33.527.613,1.908-20.466.483-19.468,2.115-.219.115-.439.23-.643.344c7.309,11.676,21.269,17.183,34.455,13.593.166-.038.34-.092.507-.139c14.956-.375,22.813-10.925,22.813-24.624-.001-1.47-.087-2.938-.258-4.398Z" transform="matrix(-1 0 0-1 339.529 1146.52)" fill="#2f2e41"/><path d="M200.448,565.067c-4.179-12.954-17.938-20.029-30.738-15.806-.696.23-1.378.49-2.044.781-11.594,5.03-17.481,18.185-13.571,30.325.599,1.865,1.416,3.651,2.437,5.317c9.859,16.162,33.306,15.46,42.203-1.265c3.162-5.942,3.781-12.936,1.713-19.352Z" transform="matrix(-1 0 0-1 354.54 1145.43)" fill="#a0616a"/><path d="M171.977,546.975c-.041.01-.081.024-.12.04l-7.695,2.539c-.02.334-14.151-9.134-14.111-8.801.22,2.56,16.139,15.042,18.518,17.946c6.651,8.015,3.298,20.291-6.476,23.711-.069.017-.136.041-.2.071-1.489.526-2.918,1.062-4.257,1.598-.66,2.782-.999,1.861-2.588,4.218.29-2.144-2.399-3.763-2.439-5.928-.549.253-1.069.516-1.569.779-.22.122-.429.233-.639.344-1.542.726-2.888,1.815-3.928,3.177c3.848,11.967,18.568,21.546,30.391,17.631l4.467-1.466c5.634-1.852,10.315-5.885,13.021-11.219c3.259-2.529,5.859-5.823,7.575-9.6c9.774-19.877-9.104-41.818-29.95-35.04Z" transform="matrix(-1 0 0-1 351.052 1145.93)" fill="#2f2e41"/><circle r="10.604" transform="matrix(-.999349 0 0 1.01157 146.753498 554.966782)" fill="#2f2e41"/><path d="M143.619,582.31c-4.55-20.929-18.178-38.666-37.096-48.283-1.189-.597-2.399-1.153-3.618-1.669.11,5.002-1.31,9.918-4.067,14.071.448-3.367.501-6.776.16-10.156-.187-1.938-.504-3.861-.95-5.756-7.84-2.617-16.073-3.819-24.324-3.551-.471,3.712-1.796,7.259-3.867,10.359.447-3.368.501-6.777.16-10.156-8.293.68-16.396,2.878-23.915,6.484-3.907,1.881-7.745,4.238-10.263,7.799-3.348,4.744-3.908,11.006-3.088,16.772.819,5.776,2.868,11.289,4.297,16.934c1.429,5.644,2.239,11.683.56,17.257-1.669,5.584-6.356,10.551-12.102,10.986-2.619.202-5.247-.526-7.865-.283-2.619.253-5.457,2.023-5.517,4.683l2.509,4.127c1.059,7.223,4.697,14.385,10.933,18.057c6.225,3.682,15.18,2.893,19.627-2.853c3.747-4.835,3.607-11.552,4.837-17.571c2.858-13.98,13.901-25.228,26.732-31.156c12.842-5.918,27.292-7.162,41.403-6.919c4.837.091,9.754.354,14.351,1.901c4.607,1.558,8.904,4.553,11.103,8.923Z" transform="matrix(-1 0 0-1 155.743 1159.16)" fill="#2f2e41"/><path d="M233.041,589.217l-4.15,50.095c-.292,3.569,2.326,6.704,5.851,7.006l10.786.916c3.526.295,6.622-2.354,6.922-5.922l4.15-50.095c.292-3.569-2.326-6.704-5.851-7.006l-10.786-.916c-3.526-.295-6.623,2.354-6.922,5.922Z" transform="matrix(-1 0 0-1 485.491 1230.53)" fill="#3f3d56"/><path d="M233.763,642.805c-1.899-.163-3.31-1.852-3.153-3.775l4.15-50.095c.162-1.923,1.83-3.351,3.73-3.192l10.786.916c1.899.164,3.311,1.852,3.153,3.776l-4.15,50.094c-.162,1.923-1.829,3.351-3.73,3.192l-10.786-.916Z" transform="matrix(-1 0 0-1 483.039 1229.46)" fill="#6c63ff"/><path d="M234.468,611.172l10.501,4.057-6.099,23.623-1.068,11.711c-.609,6.668-8.102,10.188-13.526,6.355-3.813-2.694-4.829-7.963-2.298-11.911l7.143-11.139l5.347-22.696Z" transform="matrix(-1 0 0-1 465.556 1269.67)" fill="#a0616a"/><path d="M182.153,677.07l-14.002-5.408l6.97-33.124c1.018-4.838,4.464-8.783,9.082-10.399c5.746-2.011,12.116-.022,15.744,4.917l31.415,43.868c4.612,6.276,3.434,15.131-2.652,19.949-6.67,5.278-16.39,3.533-20.859-3.747l-19.853-33.688-5.845,17.632Z" transform="matrix(-1 0 0-1 402.327 1327.3)" fill="#e6e6e6"/><path d="M181.944,694.956l7.076-29.091l1.469-1.809c5.018-6.183,14.57-5.474,18.644,1.383l22.428,37.748-20.221-28.324c-4.939-6.918-15.322-6.234-19.335,1.272l-10.061,18.821Z" transform="matrix(-1 0 0-1 413.505 1363.01)" opacity="0.2"/><g><path id="eW9iBSfGR5A46" d="M244.968519,580.362997q8.770479-140.202576-146.796133-308.221199C-35.409441,97.177078,189.158998,40.437435,362.987531,67.275023C489.228545,77.316615,579.400699,127.756184,730.23412,97.335406c145.91494-51.443742,311.564157-51.4136,310.877555,20.123542" transform="translate(.000002 0.000003)" fill="none" stroke="#39f" stroke-width="3" stroke-dasharray="0,1550,0,0"/><path id="eW9iBSfGR5A47" d="M244.548998,583.273713c7.921831-126.287548,73.113427-137.827777,204.767833-135.448603c402.161445-3.138399,714.497967,105.597742,631.772007,215.827399-87.48994,88.053305-338.833939,53.57369-502.687997,24.494491-338.425626-55.8233-149.68736-358.289327,36.533211-557.633557c119.13534-120.661912,405.82118-116.387509,425.369389-20.937716" transform="translate(.000002 0.000001)" fill="none" stroke="#39f" stroke-width="3" stroke-dasharray="0,0,0,2730"/></g></svg>