<?xml version="1.0" encoding="utf-8"?>
<svg viewBox="0 0 1200 1000" width="1px" xmlns="http://www.w3.org/2000/svg">
  <path d="M 112.03 778.854 L 139.043 781.954 C 144.896 795.136 147.482 809.564 146.576 823.987 C 131.892 803.031 100.83 803.367 80.188 788.418 C 67.218 778.873 59.242 763.874 58.511 747.66 L 49.591 730.357 C 75.3 727.508 100.953 736.197 119.789 754.135 C 124.963 759.159 129.49 764.824 133.264 770.994 C 122.635 774.252 112.03 778.854 112.03 778.854 Z" fill="#f2f2f2" style="" transform="matrix(-1, 0, 0, -1, 196.343788, 1553.812012)"/>
  <path d="M 120.741 751.185 L 143.552 766.154 C 142.983 780.595 138.941 794.676 131.776 807.176 C 127.866 781.791 99.915 768.069 88.027 745.371 C 80.624 730.972 80.093 713.947 86.583 699.103 L 86.222 679.591 C 110.488 688.647 129.62 708.004 138.576 732.563 C 140.993 739.395 142.55 746.51 143.209 753.735 C 132.26 751.853 120.741 751.185 120.741 751.185 Z" fill="#f2f2f2" style="" transform="matrix(-1, 0, 0, -1, 225.620811, 1486.767029)"/>
  <circle cx="992.724" cy="790.215" r="81.909" fill="#fff" style="" transform="matrix(-0.999349, 0, 0, 1.011573, 1195.98584, 36.558369)"/>
  <path d="M 204.031 752.05 C 140.25 752.05 100.387 821.941 132.277 877.853 C 164.168 933.765 243.895 933.765 275.786 877.853 C 283.058 865.104 286.886 850.641 286.886 835.919 C 286.834 789.621 249.77 752.103 204.031 752.05 Z M 204.031 917.763 C 141.789 917.763 102.887 849.56 134.008 794.996 C 165.13 740.432 242.934 740.432 274.055 794.996 C 281.152 807.438 284.888 821.553 284.888 835.919 C 284.838 881.1 248.666 917.713 204.031 917.763 Z" fill="#3f3d56" style="" transform="matrix(-1, 0, 0, -1, 407.939316, 1671.836975)"/>
  <path d="M 180.622 800.864 C 180.447 800.864 180.273 800.869 180.098 800.878 C 176.978 801.031 174.08 802.555 172.163 805.051 L 158.483 822.853 C 154.85 827.579 155.691 834.391 160.361 838.067 L 160.852 838.455 C 165.521 842.135 172.255 841.283 175.886 836.553 C 178.823 832.737 184.426 832.46 187.715 835.971 L 215.49 865.651 C 219.561 869.992 226.334 870.178 230.632 866.068 L 231.088 865.629 C 235.383 861.511 235.566 854.648 231.495 850.303 L 188.394 804.25 C 186.373 802.088 183.562 800.863 180.622 800.864 Z" fill="#6c63ff" style="" transform="matrix(-1, 0, 0, -1, 390.657898, 1669.896667)"/>
  <polygon points="268.837 897.892 257.485 896.612 246.729 941.194 263.483 943.084 268.837 897.892" fill="#a0616a" style="" transform="matrix(-1, 0, 0, -1, 515.56601, 1839.695984)"/>
  <path d="M 287.47 892.731 C 287.118 893.087 286.736 893.432 286.355 893.761 C 283.425 896.221 280.364 898.516 277.185 900.634 C 273.588 903.06 269.541 905.536 264.963 908.092 C 262.748 909.332 260.405 910.596 257.938 911.887 C 256.701 912.533 255.43 913.185 254.122 913.841 C 254.067 913.874 254.009 913.904 253.951 913.931 L 253.573 914.127 L 226.022 891.106 L 224.066 889.549 L 229.14 883.215 C 229.14 883.215 228.699 878.179 228.709 878.176 L 223.671 865.452 L 223.616 865.425 L 205.668 857.133 L 187.171 848.586 L 177.237 843.992 C 172.584 841.847 168.976 837.9 167.222 833.039 C 165.377 827.989 165.613 822.401 167.875 817.528 C 168.097 817.037 168.347 816.544 168.612 816.07 L 172.74 789.797 C 175.206 774.083 180 758.836 186.962 744.571 L 193.267 719.977 L 194.224 720.464 L 208.484 727.694 L 212.251 729.599 L 212.963 746.123 C 213.043 748.007 213.055 749.901 212.989 751.791 C 212.891 754.884 212.599 757.968 212.115 761.024 L 203.939 812.554 C 205.389 813.153 206.82 813.754 208.232 814.359 C 214.775 817.13 220.97 819.932 226.816 822.763 C 245.83 831.961 261.319 841.511 273.975 851.854 C 277.532 854.755 280.868 857.725 283.983 860.763 C 285.128 861.874 286.242 862.995 287.327 864.126 C 287.584 864.387 287.836 864.645 288.083 864.91 C 292.612 869.72 294.417 876.529 292.877 882.988 C 292.028 886.691 290.153 890.071 287.47 892.731 Z" fill="#2f2e41" style="" transform="matrix(-1, 0, 0, -1, 459.406906, 1634.104004)"/>
  <path d="M 266.748 964.802 L 254.459 963.426 L 252.531 963.212 L 253.785 955.826 L 239.504 941.703 C 236.954 939.187 238.052 934.82 241.481 933.843 C 242.143 933.654 242.838 933.618 243.516 933.735 L 263.797 937.251 L 266.052 945.164 L 268.655 938.094 L 276.295 939.417 L 269.736 965.132 L 266.748 964.802 Z" fill="#2f2e41" style="" transform="matrix(-1, 0, 0, -1, 514.399811, 1898.799927)"/>
  <path d="M 249.058 615.413 L 259.58 626.708 L 244.736 659.582 L 242.529 671.129 C 241.272 677.703 233.471 680.457 228.448 676.099 C 224.917 673.036 224.421 667.691 227.326 664.016 L 235.521 653.646 L 249.058 615.413 Z" fill="#a0616a" style="" transform="matrix(-1, 0, 0, -1, 485.015442, 1293.621338)"/>
  <path d="M 192.881 665.8 L 180.888 653.661 L 183.183 635.913 C 184.669 631.201 188.483 627.62 193.237 626.474 C 199.152 625.049 205.295 627.666 208.423 632.943 L 235.397 679.743 C 239.373 686.449 237.336 695.142 230.808 699.327 C 223.656 703.912 214.154 701.202 210.419 693.511 L 193.955 658 L 192.881 665.8 Z" fill="#e6e6e6" style="" transform="matrix(-1, 0, 0, -1, 418.315582, 1327.655396)"/>
  <path d="M 271.694 811.437 C 271.075 810.798 270.454 810.167 269.825 809.534 C 268.574 808.27 267.306 807.018 266.034 805.781 C 265.394 805.161 264.748 804.54 264.106 803.928 L 264.111 803.905 L 264.069 803.887 L 264.056 803.876 L 262.989 803.319 L 260.335 807.277 L 259.11 809.1 L 257.38 811.682 L 254.209 816.405 L 237.517 841.276 L 252.487 849.098 L 253.666 846.776 L 253.673 846.778 L 254.256 845.627 L 265.204 824.155 L 267.439 819.765 L 267.51 819.632 L 268.852 817.011 L 270.011 814.739 L 271.305 812.2 L 271.694 811.437 Z" fill="#a0616a" style="" transform="matrix(-1, 0, 0, -1, 509.210999, 1652.416992)"/>
  <path d="M 235.57 870.445 L 225.15 863.71 L 223.513 862.655 L 227.866 856.591 L 221.227 837.532 C 220.04 834.133 222.933 830.708 226.435 831.367 C 227.11 831.494 227.75 831.772 228.307 832.181 L 244.96 844.415 L 243.527 852.521 L 248.949 847.345 L 255.223 851.952 L 238.105 872.079 L 235.57 870.445 Z" fill="#2f2e41" style="" transform="matrix(-1, 0, 0, -1, 476.179184, 1703.363953)"/>
  <path d="M 1055.568 147.616 L 1063.707 156.817 C 1066.592 160.078 1066.1 164.82 1062.593 167.537 C 1057.603 171.404 1049.856 168.962 1048.607 163.127 L 1046.414 152.883 L 1038.092 132.568 L 1048.078 128.053 L 1055.568 147.616 Z" fill="#ffb8b8" style="" transform="matrix(-0.99863, 0.052336, -0.052336, -0.99863, 2110.019233, 242.209201)"/>
  <path d="M 1096.569 164.112 L 1080.217 195.619 C 1076.507 202.444 1067.069 204.848 1059.965 200.78 C 1053.481 197.066 1051.458 189.353 1055.406 183.403 L 1082.199 141.878 C 1085.305 137.197 1091.409 134.875 1097.284 136.139 C 1102.005 137.156 1105.793 140.333 1107.269 144.515 L 1117.373 173.141 L 1104.059 179.159 L 1096.569 164.112 Z" fill="#2f2e41" style="" transform="matrix(-0.99863, 0.052336, -0.052336, -0.99863, 2178.135014, 281.527973)"/>
  <path d="M 1047.176 109.682 L 1036.462 110.494 C 1032.961 110.764 1030.361 113.544 1030.651 116.712 L 1034.772 161.159 C 1035.071 164.326 1038.146 166.676 1041.648 166.414 L 1052.36 165.602 C 1055.862 165.333 1058.463 162.552 1058.173 159.386 L 1054.051 114.938 C 1053.753 111.771 1050.677 109.42 1047.176 109.682 Z" fill="#3f3d56" style="" transform="matrix(-0.99863, 0.052336, -0.052336, -0.99863, 2094.617521, 221.246482)"/>
  <path d="M 1042.594 163.233 C 1040.706 163.374 1039.049 162.108 1038.888 160.401 L 1034.767 115.953 C 1034.61 114.247 1036.011 112.748 1037.898 112.604 L 1048.612 111.792 C 1050.499 111.651 1052.157 112.917 1052.317 114.623 L 1056.438 159.071 C 1056.594 160.777 1055.193 162.275 1053.307 162.421 L 1042.594 163.233 Z" fill="#6c63ff" style="" transform="matrix(-0.99863, 0.052336, -0.052336, -0.99863, 2096.968724, 220.113914)"/>
  <rect x="-163.467" y="-138.349" width="44.482" height="40.22" fill="#ffb8b8" transform="matrix(-0.99863, 0.052336, 0.052336, 0.99863, 962.50202, 349.444752)" style=""/>
  <circle cx="218.656" cy="148.209" r="2.406" fill="#2f2e41" transform="matrix(-0.989244, 0.051845, 0.046879, 0.894494, 1274.508911, 56.015633)" style=""/>
  <polygon points="1016.009 336.523 1027.896 336.524 1033.552 377.985 1016.007 377.985 1016.009 336.523" fill="#ffb6b6" style="" transform="matrix(-0.99863, 0.052336, -0.052336, -0.99863, 2066.851836, 660.38554)"/>
  <path d="M 1001.499 397.683 L 1020.291 398.697 L 1020.291 391.418 L 1038.157 380.26 C 1041.342 378.271 1040.954 373.909 1037.455 372.41 C 1036.781 372.12 1036.045 371.971 1035.299 371.971 L 1012.927 371.971 L 1009.071 379.171 L 1007.565 371.971 L 999.129 371.971 L 1001.499 397.683 Z" fill="#2f2e41" style="" transform="matrix(-0.99863, 0.052336, -0.052336, -0.99863, 2058.227462, 716.771381)"/>
  <polygon points="1084.876 373.45 1095.068 367.919 1123.514 400.836 1108.472 409 1084.876 373.45" fill="#ffb6b6" style="" transform="matrix(-0.99863, 0.052336, -0.052336, -0.99863, 2227.207165, 718.597495)"/>
  <path d="M 1119.179 435.089 L 1135.868 427.214 L 1131.725 420.972 L 1140.692 403.091 C 1142.293 399.904 1139.474 396.345 1135.623 396.687 C 1134.881 396.753 1134.163 396.967 1133.523 397.314 L 1114.343 407.725 L 1115.135 415.694 L 1109.744 410.221 L 1102.512 414.146 L 1119.179 435.089 Z" fill="#2f2e41" style="" transform="matrix(-0.99863, 0.052336, -0.052336, -0.99863, 2263.889379, 772.471074)"/>
  <path d="M 1076.477 385.527 L 1028.824 390.669 L 1030.195 382.499 C 1030.195 382.499 997.926 358.988 1020.016 333.045 L 1030.68 323.641 L 1029.698 319.221 L 1036.547 319.221 L 1037.283 313.889 L 1066.743 291.839 L 1068.434 287.327 L 1073.286 287.327 L 1070.915 282.197 L 1049.042 236.199 L 1067.164 228.56 L 1100.538 286.411 L 1091.989 303.848 L 1061.236 339.044 L 1108.869 322.031 L 1109.68 318.296 L 1114.06 319.046 L 1113.214 313.55 L 1122.508 270.306 L 1142.196 272.668 L 1140.172 326.477 C 1139.862 332.464 1136.025 337.842 1130.119 340.564 C 1120.026 345.252 1082.745 358.275 1082.745 358.275 L 1076.477 385.527 Z" fill="#2f2e41" style="" transform="matrix(-0.99863, 0.052336, -0.052336, -0.99863, 2169.208494, 562.426243)"/>
  <path d="M 1102.984 230.37 L 1094.012 240.797 L 1081.214 241.298 L 1079.936 231.492 L 1073.596 228.847 C 1067.264 207.097 1066.286 184.355 1070.731 162.226 C 1072.462 160.754 1073.177 158.548 1072.597 156.464 L 1072.187 154.982 L 1072.224 154.928 C 1073.574 153.003 1074.031 150.674 1073.499 148.447 L 1061.907 129.821 C 1086.524 120.748 1104.57 137.668 1121.288 159.841 L 1131.636 192.226 L 1102.984 230.37 Z" fill="#3f3d56" style="" transform="matrix(-0.99863, 0.052336, -0.052336, -0.99863, 2201.685928, 310.966858)"/>
  <polygon points="1091.21 134.44 1093.625 156.29 1061.549 199.225 1060.229 198.42 1091.984 155.915 1089.625 134.583 1091.21 134.44" fill="#2f2e41" style="" transform="matrix(-0.99863, 0.052336, -0.052336, -0.99863, 2161.109455, 277.074328)"/>
  <circle cx="183.874" cy="45.078" r="23.838" fill="#ffb8b8" transform="matrix(-0.989244, 0.051845, 0.046879, 0.894494, 1274.508911, 56.015594)" style=""/>
  <path d="M 1103.592 135.122 L 1100.623 135.038 L 1099.614 135.008 L 1088.315 134.684 C 1078.299 134.397 1070.47 125.904 1070.828 115.716 C 1063.51 108.637 1066.081 100.107 1072.401 91.025 C 1083.266 90.117 1093.941 87.861 1104.125 84.319 L 1105.357 89.866 L 1108.424 82.696 C 1110.965 81.672 1113.487 80.545 1115.993 79.313 C 1112.694 91.426 1111.086 103.556 1112.724 113.063 L 1117.899 113.212 L 1117.719 118.332 L 1119.656 113.262 L 1129.036 113.531 C 1128.604 125.845 1117.213 135.513 1103.592 135.122 Z" fill="#2f2e41" style="" transform="matrix(-0.99863, 0.052336, -0.052336, -0.99863, 2199.528034, 156.84975)"/>
  <circle cx="166.358" cy="14.822" r="11.226" fill="#2f2e41" transform="matrix(-0.989244, 0.051845, 0.046879, 0.894494, 1274.508911, 56.015587)" style=""/>
  <path d="M 1049.192 158.736 L 1057.331 167.936 C 1060.217 171.197 1059.723 175.939 1056.218 178.657 C 1051.228 182.524 1043.48 180.081 1042.231 174.248 L 1040.037 164.002 L 1031.717 143.688 L 1041.703 139.173 L 1049.192 158.736 Z" fill="#ffb8b8" style="" transform="matrix(-0.99863, 0.052336, -0.052336, -0.99863, 2097.859209, 264.76743)"/>
  <path d="M 1090.194 175.231 L 1073.842 206.738 C 1070.133 213.563 1060.696 215.968 1053.59 211.9 C 1047.105 208.186 1045.082 200.474 1049.032 194.523 L 1075.824 152.998 C 1078.929 148.317 1085.034 145.995 1090.908 147.259 C 1095.63 148.275 1099.418 151.452 1100.894 155.635 L 1110.998 184.261 L 1097.684 190.28 L 1090.194 175.231 Z" fill="#2f2e41" style="" transform="matrix(-0.99863, 0.052336, -0.052336, -0.99863, 2165.975354, 304.086116)"/>
  <path d="M 299.616 773.417 C 298.578 771.73 297.519 770.053 296.452 768.39 C 294.469 765.295 292.432 762.246 290.344 759.242 C 290.344 759.234 290.336 759.234 290.329 759.227 C 289.11 758.084 287.764 757.089 286.317 756.261 C 286.256 756.216 286.189 756.185 286.128 756.147 C 285.062 755.551 283.929 755.09 282.752 754.775 C 282.328 754.668 281.896 754.561 281.473 754.454 C 279.944 754.085 278.43 753.772 276.924 753.496 C 274.244 753.013 271.595 752.668 268.961 752.454 C 268.749 752.431 268.537 752.415 268.325 752.4 C 257.494 751.596 246.95 752.891 235.945 755.013 C 230.51 756.055 224.962 757.304 219.217 758.599 C 217.34 759.028 215.456 759.449 213.548 759.871 C 213.404 759.901 213.253 759.939 213.101 759.97 C 210.377 760.576 207.607 761.173 204.768 761.763 C 201.195 762.506 203.027 762.549 199.196 763.231 C 199.196 763.231 208.033 754.148 209.501 750.21 C 211.136 745.368 212.431 741.537 209.698 733.562 L 218.184 716.699 L 188.683 711.635 C 172.424 743.885 159.43 765.121 165.234 777.629 C 165.257 778.21 165.302 778.8 165.378 779.383 C 166.001 784.73 168.72 789.6 172.924 792.898 C 176.954 796.085 182.076 797.503 187.147 796.836 L 192.937 796.078 L 237.845 798.286 L 239.608 805.564 L 239.934 805.687 L 250.281 809.526 L 286.068 822.804 L 286.158 822.834 L 288.512 823.707 L 288.792 823.248 C 288.876 823.11 288.959 822.972 289.035 822.834 C 291.361 818.612 293.255 814.161 294.688 809.549 C 297.098 802.015 299.082 794.349 300.63 786.586 C 300.698 786.249 300.759 785.943 300.812 785.667 L 300.834 785.583 C 300.857 785.452 300.872 785.368 300.88 785.345 C 301.705 781.867 301.13 777.623 299.616 773.417 Z" fill="#2f2e41" style="" transform="matrix(-1, 0, 0, -1, 465.083893, 1535.34198)"/>
  <line x1="260.317" y1="851.711" x2="259.605" y2="851.711" fill="#2f2e41" style="" transform="matrix(-1, 0, 0, -1, 519.921997, 1703.421997)"/>
  <path d="M 218.42 733.647 L 218.161 748.167 L 195.435 750.843 L 193.052 738.582 L 169.166 715.862 C 152.184 694.847 164.524 680.354 165.264 678.199 L 167.363 651.7 L 168.684 642.493 L 163.526 617.295 L 228.635 603.158 C 230.72 620.578 228.399 636.764 214.806 649.793 L 221.675 671.427 C 225.157 677.074 227.339 683.443 228.063 690.061 L 228.31 692.323 C 234.379 711.465 230.784 717.91 218.42 733.647 Z" fill="#e6e6e6" style="" transform="matrix(-1, 0, 0, -1, 391.439697, 1354.001038)"/>
  <path d="M 198.394 571.542 C 198.41 571.167 198.417 570.792 198.417 570.424 C 198.389 552.956 181.535 540.596 165.129 546.013 L 160.459 547.554 C 160.421 547.569 160.375 547.576 160.337 547.592 L 152.64 550.135 C 152.614 550.465 152.619 550.796 152.655 551.124 C 141.172 556.089 157.045 572.4 160.988 584.651 C 161.601 586.559 140.522 585.134 141.52 586.766 C 141.301 586.881 141.081 586.996 140.877 587.11 C 148.186 598.786 162.146 604.293 175.332 600.703 C 175.498 600.665 175.672 600.611 175.839 600.564 C 190.795 600.189 198.652 589.639 198.652 575.94 C 198.651 574.47 198.565 573.002 198.394 571.542 Z" fill="#2f2e41" style="" transform="matrix(-1, 0, 0, -1, 339.528992, 1146.515259)"/>
  <path d="M 200.448 565.067 C 196.269 552.113 182.51 545.038 169.71 549.261 C 169.014 549.491 168.332 549.751 167.666 550.042 C 156.072 555.072 150.185 568.227 154.095 580.367 C 154.694 582.232 155.511 584.018 156.532 585.684 C 166.391 601.846 189.838 601.144 198.735 584.419 C 201.897 578.477 202.516 571.483 200.448 565.067 Z" fill="#a0616a" style="" transform="matrix(-1, 0, 0, -1, 354.539963, 1145.434265)"/>
  <path d="M 171.977 546.975 C 171.936 546.985 171.896 546.999 171.857 547.015 L 164.162 549.554 C 164.142 549.888 150.011 540.42 150.051 540.753 C 150.271 543.313 166.19 555.795 168.569 558.699 C 175.22 566.714 171.867 578.99 162.093 582.41 C 162.024 582.427 161.957 582.451 161.893 582.481 C 160.404 583.007 158.975 583.543 157.636 584.079 C 156.976 586.861 156.637 585.94 155.048 588.297 C 155.338 586.153 152.649 584.534 152.609 582.369 C 152.06 582.622 151.54 582.885 151.04 583.148 C 150.82 583.27 150.611 583.381 150.401 583.492 C 148.859 584.218 147.513 585.307 146.473 586.669 C 150.321 598.636 165.041 608.215 176.864 604.3 L 181.331 602.834 C 186.965 600.982 191.646 596.949 194.352 591.615 C 197.611 589.086 200.211 585.792 201.927 582.015 C 211.701 562.138 192.823 540.197 171.977 546.975 Z" fill="#2f2e41" style="" transform="matrix(-1, 0, 0, -1, 351.051926, 1145.933655)"/>
  <circle cx="1049.919" cy="512.479" r="10.604" fill="#2f2e41" style="" transform="matrix(-0.999349, 0, 0, 1.011573, 1195.98584, 36.558369)"/>
  <path d="M 143.619 582.31 C 139.069 561.381 125.441 543.644 106.523 534.027 C 105.334 533.43 104.124 532.874 102.905 532.358 C 103.015 537.36 101.595 542.276 98.838 546.429 C 99.286 543.062 99.339 539.653 98.998 536.273 C 98.811 534.335 98.494 532.412 98.048 530.517 C 90.208 527.9 81.975 526.698 73.724 526.966 C 73.253 530.678 71.928 534.225 69.857 537.325 C 70.304 533.957 70.358 530.548 70.017 527.169 C 61.724 527.849 53.621 530.047 46.102 533.653 C 42.195 535.534 38.357 537.891 35.839 541.452 C 32.491 546.196 31.931 552.458 32.751 558.224 C 33.57 564 35.619 569.513 37.048 575.158 C 38.477 580.802 39.287 586.841 37.608 592.415 C 35.939 597.999 31.252 602.966 25.506 603.401 C 22.887 603.603 20.259 602.875 17.641 603.118 C 15.022 603.371 12.184 605.141 12.124 607.801 L 14.633 611.928 C 15.692 619.151 19.33 626.313 25.566 629.985 C 31.791 633.667 40.746 632.878 45.193 627.132 C 48.94 622.297 48.8 615.58 50.03 609.561 C 52.888 595.581 63.931 584.333 76.762 578.405 C 89.604 572.487 104.054 571.243 118.165 571.486 C 123.002 571.577 127.919 571.84 132.516 573.387 C 137.123 574.945 141.42 577.94 143.619 582.31 Z" fill="#2f2e41" style="" transform="matrix(-1, 0, 0, -1, 155.74301, 1159.15564)"/>
  <path d="M 233.041 589.217 L 228.891 639.312 C 228.599 642.881 231.217 646.016 234.742 646.318 L 245.528 647.234 C 249.054 647.529 252.15 644.88 252.45 641.312 L 256.6 591.217 C 256.892 587.648 254.274 584.513 250.749 584.211 L 239.963 583.295 C 236.437 583 233.34 585.649 233.041 589.217 Z" fill="#3f3d56" style="" transform="matrix(-1, 0, 0, -1, 485.491028, 1230.528992)"/>
  <path d="M 233.763 642.805 C 231.864 642.642 230.453 640.953 230.61 639.03 L 234.76 588.935 C 234.922 587.012 236.59 585.584 238.49 585.743 L 249.276 586.659 C 251.175 586.823 252.587 588.511 252.429 590.435 L 248.279 640.529 C 248.117 642.452 246.45 643.88 244.549 643.721 L 233.763 642.805 Z" fill="#6c63ff" style="" transform="matrix(-1, 0, 0, -1, 483.039139, 1229.463989)"/>
  <path d="M 234.468 611.172 L 244.969 615.229 L 238.87 638.852 L 237.802 650.563 C 237.193 657.231 229.7 660.751 224.276 656.918 C 220.463 654.224 219.447 648.955 221.978 645.007 L 229.121 633.868 L 234.468 611.172 Z" fill="#a0616a" style="" transform="matrix(-1, 0, 0, -1, 465.556335, 1269.672852)"/>
  <path d="M 182.153 677.07 L 168.151 671.662 L 175.121 638.538 C 176.139 633.7 179.585 629.755 184.203 628.139 C 189.949 626.128 196.319 628.117 199.947 633.056 L 231.362 676.924 C 235.974 683.2 234.796 692.055 228.71 696.873 C 222.04 702.151 212.32 700.406 207.851 693.126 L 187.998 659.438 L 182.153 677.07 Z" fill="#e6e6e6" style="" transform="matrix(-1, 0, 0, -1, 402.326675, 1327.295166)"/>
  <path d="M 181.944 694.956 L 189.02 665.865 L 190.489 664.056 C 195.507 657.873 205.059 658.582 209.133 665.439 L 231.561 703.187 L 211.34 674.863 C 206.401 667.945 196.018 668.629 192.005 676.135 L 181.944 694.956 Z" opacity="0.2" style="" transform="matrix(-1, 0, 0, -1, 413.505005, 1363.013062)"/>
</svg>