<svg id="ePqkzB5Xv701" xmlns="http://www.w3.org/2000/svg" xmlns:xlink="http://www.w3.org/1999/xlink" viewBox="0 0 1500 1600" shape-rendering="geometricPrecision" text-rendering="geometricPrecision"><style><![CDATA[#ePqkzB5Xv706_tr {animation: ePqkzB5Xv706_tr__tr 40000ms linear infinite alternate-reverse forwards}@keyframes ePqkzB5Xv706_tr__tr { 0% {transform: translate(-5.922915px,12.094433px) rotate(0deg)} 100% {transform: translate(-5.922915px,12.094433px) rotate(180deg)}} #ePqkzB5Xv707_to {animation: ePqkzB5Xv707_to__to 40000ms linear infinite alternate-reverse forwards}@keyframes ePqkzB5Xv707_to__to { 0% {transform: translate(293.561057px,873.226605px)} 28% {transform: translate(115.900668px,830.604747px)} 72% {transform: translate(153.891397px,1026.890178px)} 100% {transform: translate(289.391663px,876.193622px)}} #ePqkzB5Xv709_to {animation: ePqkzB5Xv709_to__to 40000ms linear infinite alternate-reverse forwards}@keyframes ePqkzB5Xv709_to__to { 0% {transform: translate(295.1px,872.54px)} 28% {transform: translate(117.439611px,829.918142px)} 72% {transform: translate(155.43034px,1026.203573px)} 100% {transform: translate(290.930606px,875.507017px)}} #ePqkzB5Xv7017_to {animation: ePqkzB5Xv7017_to__to 40000ms linear infinite alternate-reverse forwards}@keyframes ePqkzB5Xv7017_to__to { 0% {transform: translate(120.15px,700.4px)} 26% {transform: translate(202.549558px,845.721418px)} 44.5% {transform: translate(205.914133px,779.69164px)} 61% {transform: translate(146.613505px,778.009352px)} 80% {transform: translate(99.088888px,824.692825px)} 100% {transform: translate(119.696908px,698.941848px)}} #ePqkzB5Xv7024_to {animation: ePqkzB5Xv7024_to__to 40000ms linear infinite alternate-reverse forwards}@keyframes ePqkzB5Xv7024_to__to { 0% {transform: translate(-149.118112px,-11.6471px)} 29.5% {transform: translate(-36.717637px,-55.230958px)} 60% {transform: translate(-247.755263px,75.520615px)} 100% {transform: translate(-149.118112px,-13.940987px)}} #ePqkzB5Xv7040_to {animation: ePqkzB5Xv7040_to__to 40000ms linear infinite alternate-reverse forwards}@keyframes ePqkzB5Xv7040_to__to { 0% {transform: translate(-756.443px,-904.47px)} 50% {transform: translate(-648.556903px,-865.239742px)} 100% {transform: translate(-756.443px,-904.47px)}} #ePqkzB5Xv7040_tr {animation: ePqkzB5Xv7040_tr__tr 40000ms linear infinite alternate-reverse forwards}@keyframes ePqkzB5Xv7040_tr__tr { 0% {transform: rotate(0deg)} 50% {transform: rotate(12.380237deg)} 100% {transform: rotate(0deg)}} #ePqkzB5Xv7041_tr {animation: ePqkzB5Xv7041_tr__tr 40000ms linear infinite alternate-reverse forwards}@keyframes ePqkzB5Xv7041_tr__tr { 0% {transform: translate(776.325px,928.876px) rotate(5.550322deg)} 18.5% {transform: translate(776.325px,928.876px) rotate(4.187177deg)} 31.5% {transform: translate(776.325px,928.876px) rotate(15.540593deg)} 49.5% {transform: translate(776.325px,928.876px) rotate(7.406889deg)} 65% {transform: translate(776.325px,928.876px) rotate(13.604333deg)} 85% {transform: translate(776.325px,928.876px) rotate(11.9211deg)} 100% {transform: translate(776.325px,928.876px) rotate(8.924363deg)}} #ePqkzB5Xv7052_tr {animation: ePqkzB5Xv7052_tr__tr 40000ms linear infinite alternate-reverse forwards}@keyframes ePqkzB5Xv7052_tr__tr { 0% {transform: translate(716.717px,938.095px) rotate(0deg)} 29.5% {transform: translate(716.717px,938.095px) rotate(-12.29693deg)} 48% {transform: translate(716.717px,938.095px) rotate(-0.150317deg)} 64% {transform: translate(716.717px,938.095px) rotate(-4.859346deg)} 82.5% {transform: translate(716.717px,938.095px) rotate(-1.637961deg)} 100% {transform: translate(716.717px,938.095px) rotate(-8.06574deg)}} #ePqkzB5Xv7061_to {animation: ePqkzB5Xv7061_to__to 40000ms linear infinite alternate-reverse forwards}@keyframes ePqkzB5Xv7061_to__to { 0% {transform: translate(739.434px,829.237px)} 0.05% {transform: translate(739.434px,829.237px)} 50% {transform: translate(629.388095px,1000.05635px)} 100% {transform: translate(737.511px,839.512px)}} #ePqkzB5Xv7061_tr {animation: ePqkzB5Xv7061_tr__tr 40000ms linear infinite alternate-reverse forwards}@keyframes ePqkzB5Xv7061_tr__tr { 0% {transform: rotate(-4.311384deg)} 0.05% {transform: rotate(-4.311384deg)} 50% {transform: rotate(3.165769deg)} 100% {transform: rotate(0deg)}} #ePqkzB5Xv7063_tr {animation: ePqkzB5Xv7063_tr__tr 40000ms linear infinite alternate-reverse forwards}@keyframes ePqkzB5Xv7063_tr__tr { 0% {transform: translate(751.929px,639.601px) rotate(0deg)} 29.5% {transform: translate(751.929px,639.601px) rotate(20.950956deg)} 52.5% {transform: translate(751.929px,639.601px) rotate(10.2037deg)} 69.5% {transform: translate(751.929px,639.601px) rotate(20.429924deg)} 100% {transform: translate(751.929px,639.601px) rotate(12.315384deg)}} #ePqkzB5Xv7084_tr {animation: ePqkzB5Xv7084_tr__tr 40000ms linear infinite alternate-reverse forwards}@keyframes ePqkzB5Xv7084_tr__tr { 0% {transform: translate(630.907px,664.344px) rotate(0deg)} 20% {transform: translate(630.907px,664.344px) rotate(14.148311deg)} 37.5% {transform: translate(630.907px,664.344px) rotate(2.89703deg)} 56.5% {transform: translate(630.907px,664.344px) rotate(-8.731967deg)} 76.5% {transform: translate(630.907px,664.344px) rotate(0.898514deg)} 100% {transform: translate(630.907px,664.344px) rotate(7.432689deg)}} #ePqkzB5Xv70136_to {animation: ePqkzB5Xv70136_to__to 40000ms linear infinite alternate-reverse forwards}@keyframes ePqkzB5Xv70136_to__to { 0% {transform: translate(737.511px,839.512px)} 50% {transform: translate(627.465095px,1010.33135px)} 100% {transform: translate(737.511px,839.512px)}} #ePqkzB5Xv70136_tr {animation: ePqkzB5Xv70136_tr__tr 40000ms linear infinite alternate-reverse forwards}@keyframes ePqkzB5Xv70136_tr__tr { 0% {transform: rotate(0deg)} 0.05% {transform: rotate(0deg)} 50% {transform: rotate(7.477153deg)} 100% {transform: rotate(0deg)}}]]></style><defs><linearGradient id="ePqkzB5Xv708-fill" x1="-66.270006" y1="0.000022" x2="66.279994" y2="0.000022" spreadMethod="pad" gradientUnits="userSpaceOnUse" gradientTransform="translate(0 0)"><stop id="ePqkzB5Xv708-fill-0" offset="0%" stop-color="#ff5053"/><stop id="ePqkzB5Xv708-fill-1" offset="100%" stop-color="#f0ffbb"/></linearGradient><linearGradient id="ePqkzB5Xv7010-fill" x1="-31.780006" y1="0.000022" x2="31.789994" y2="0.000022" spreadMethod="pad" gradientUnits="userSpaceOnUse" gradientTransform="translate(0 0)"><stop id="ePqkzB5Xv7010-fill-0" offset="0%" stop-color="#ff5053"/><stop id="ePqkzB5Xv7010-fill-1" offset="100%" stop-color="#f0ffbb"/></linearGradient><linearGradient id="ePqkzB5Xv7012-fill" x1="-10.779951" y1="0.000002" x2="10.770049" y2="0.000002" spreadMethod="pad" gradientUnits="userSpaceOnUse" gradientTransform="translate(0 0)"><stop id="ePqkzB5Xv7012-fill-0" offset="0%" stop-color="#ff5053"/><stop id="ePqkzB5Xv7012-fill-1" offset="100%" stop-color="#f0ffbb"/></linearGradient><linearGradient id="ePqkzB5Xv7014-fill" x1="-15.539985" y1="0.00001" x2="15.540015" y2="0.00001" spreadMethod="pad" gradientUnits="userSpaceOnUse" gradientTransform="translate(0 0)"><stop id="ePqkzB5Xv7014-fill-0" offset="0%" stop-color="#c88eda"/><stop id="ePqkzB5Xv7014-fill-1" offset="100%" stop-color="#eeeded"/></linearGradient><linearGradient id="ePqkzB5Xv7016-fill" x1="-15.539946" y1="-0.00002" x2="15.540054" y2="-0.00002" spreadMethod="pad" gradientUnits="userSpaceOnUse" gradientTransform="translate(0 0)"><stop id="ePqkzB5Xv7016-fill-0" offset="0%" stop-color="#c88eda"/><stop id="ePqkzB5Xv7016-fill-1" offset="100%" stop-color="#eeeded"/></linearGradient><linearGradient id="ePqkzB5Xv7018-fill" x1="-15.540002" y1="-0.000024" x2="15.539998" y2="-0.000024" spreadMethod="pad" gradientUnits="userSpaceOnUse" gradientTransform="translate(0 0)"><stop id="ePqkzB5Xv7018-fill-0" offset="0%" stop-color="#c88eda"/><stop id="ePqkzB5Xv7018-fill-1" offset="100%" stop-color="#eeeded"/></linearGradient><linearGradient id="ePqkzB5Xv7021-fill" x1="-61.430029" y1="0" x2="61.429971" y2="0" spreadMethod="pad" gradientUnits="userSpaceOnUse" gradientTransform="translate(0 0)"><stop id="ePqkzB5Xv7021-fill-0" offset="0%" stop-color="#ffdae0"/><stop id="ePqkzB5Xv7021-fill-1" offset="100%" stop-color="#fefff6"/></linearGradient><linearGradient id="ePqkzB5Xv7023-fill" x1="-31.780029" y1="0" x2="31.789971" y2="0" spreadMethod="pad" gradientUnits="userSpaceOnUse" gradientTransform="translate(0 0)"><stop id="ePqkzB5Xv7023-fill-0" offset="0%" stop-color="#ffdae0"/><stop id="ePqkzB5Xv7023-fill-1" offset="100%" stop-color="#fefff6"/></linearGradient><linearGradient id="ePqkzB5Xv7026-fill" x1="-145.67999" y1="-0.000005" x2="145.67001" y2="-0.000005" spreadMethod="pad" gradientUnits="userSpaceOnUse" gradientTransform="translate(0 0)"><stop id="ePqkzB5Xv7026-fill-0" offset="0%" stop-color="#c88eda"/><stop id="ePqkzB5Xv7026-fill-1" offset="100%" stop-color="#eeeded"/></linearGradient><linearGradient id="ePqkzB5Xv7028-fill" x1="-73.73999" y1="-0.000005" x2="73.73001" y2="-0.000005" spreadMethod="pad" gradientUnits="userSpaceOnUse" gradientTransform="translate(0 0)"><stop id="ePqkzB5Xv7028-fill-0" offset="0%" stop-color="#c88eda"/><stop id="ePqkzB5Xv7028-fill-1" offset="100%" stop-color="#eeeded"/></linearGradient><linearGradient id="ePqkzB5Xv7045-fill" x1="1020.783663" y1="1389.596575" x2="1063.258673" y2="1326.766812" spreadMethod="pad" gradientUnits="userSpaceOnUse" gradientTransform="translate(0 0)"><stop id="ePqkzB5Xv7045-fill-0" offset="0%" stop-color="#9cb3ef"/><stop id="ePqkzB5Xv7045-fill-1" offset="100%" stop-color="#bad3f6"/></linearGradient><linearGradient id="ePqkzB5Xv7046-fill" x1="981.54" y1="1324.27" x2="1095.23" y2="1324.27" spreadMethod="pad" gradientUnits="userSpaceOnUse" gradientTransform="translate(0 0)"><stop id="ePqkzB5Xv7046-fill-0" offset="0%" stop-color="#0d121e"/><stop id="ePqkzB5Xv7046-fill-1" offset="78%" stop-color="#2c52aa"/></linearGradient><linearGradient id="ePqkzB5Xv7048-fill" x1="828.87" y1="1133.3" x2="1109.91" y2="931.86" spreadMethod="pad" gradientUnits="userSpaceOnUse" gradientTransform="translate(0 0)"><stop id="ePqkzB5Xv7048-fill-0" offset="51%" stop-color="#030a16"/><stop id="ePqkzB5Xv7048-fill-1" offset="100%" stop-color="#5c4f90"/></linearGradient><linearGradient id="ePqkzB5Xv7049-fill" x1="985.44" y1="1040.64" x2="1030.83" y2="998.15" spreadMethod="pad" gradientUnits="userSpaceOnUse" gradientTransform="translate(0 0)"><stop id="ePqkzB5Xv7049-fill-0" offset="0%" stop-color="#0d121e"/><stop id="ePqkzB5Xv7049-fill-1" offset="78%" stop-color="#2c52aa"/></linearGradient><linearGradient id="ePqkzB5Xv7050-fill" x1="693.25" y1="942.2" x2="980.65" y2="736.21" spreadMethod="pad" gradientUnits="userSpaceOnUse" gradientTransform="translate(0 0)"><stop id="ePqkzB5Xv7050-fill-0" offset="51%" stop-color="#030a16"/><stop id="ePqkzB5Xv7050-fill-1" offset="100%" stop-color="#5c4f90"/></linearGradient><linearGradient id="ePqkzB5Xv7051-fill" x1="501.75" y1="933.83" x2="1052.33" y2="906.93" spreadMethod="pad" gradientUnits="userSpaceOnUse" gradientTransform="translate(0 0)"><stop id="ePqkzB5Xv7051-fill-0" offset="0%" stop-color="#0b1934"/><stop id="ePqkzB5Xv7051-fill-1" offset="51%" stop-color="#030a16"/><stop id="ePqkzB5Xv7051-fill-2" offset="100%" stop-color="#5c4f90"/></linearGradient><linearGradient id="ePqkzB5Xv7057-fill" x1="617.9" y1="1390.07" x2="678.92" y2="1390.07" spreadMethod="pad" gradientUnits="userSpaceOnUse" gradientTransform="translate(0 0)"><stop id="ePqkzB5Xv7057-fill-0" offset="0%" stop-color="#0d121e"/><stop id="ePqkzB5Xv7057-fill-1" offset="78%" stop-color="#2c52aa"/></linearGradient><linearGradient id="ePqkzB5Xv7058-fill" x1="598.149136" y1="1417.48582" x2="673.229715" y2="1409.634277" spreadMethod="pad" gradientUnits="userSpaceOnUse" gradientTransform="translate(0 0)"><stop id="ePqkzB5Xv7058-fill-0" offset="0%" stop-color="#9cb3ef"/><stop id="ePqkzB5Xv7058-fill-1" offset="100%" stop-color="#bad3f6"/></linearGradient><linearGradient id="ePqkzB5Xv7059-fill" x1="510.44" y1="1134.53" x2="1062.02" y2="1107.57" spreadMethod="pad" gradientUnits="userSpaceOnUse" gradientTransform="translate(0 0)"><stop id="ePqkzB5Xv7059-fill-0" offset="0%" stop-color="#0b1934"/><stop id="ePqkzB5Xv7059-fill-1" offset="51%" stop-color="#030a16"/><stop id="ePqkzB5Xv7059-fill-2" offset="100%" stop-color="#5c4f90"/></linearGradient><linearGradient id="ePqkzB5Xv7060-fill" x1="799.5" y1="1183.43" x2="930.62" y2="1106.34" spreadMethod="pad" gradientUnits="userSpaceOnUse" gradientTransform="translate(0 0)"><stop id="ePqkzB5Xv7060-fill-0" offset="0%" stop-color="#0d121e"/><stop id="ePqkzB5Xv7060-fill-1" offset="78%" stop-color="#2c52aa"/></linearGradient><linearGradient id="ePqkzB5Xv7067-fill" x1="729.308934" y1="689.976193" x2="909.218934" y2="603.619389" spreadMethod="pad" gradientUnits="userSpaceOnUse" gradientTransform="translate(0 0)"><stop id="ePqkzB5Xv7067-fill-0" offset="0%" stop-color="#df5e55"/><stop id="ePqkzB5Xv7067-fill-1" offset="100%" stop-color="#f3ac9a"/></linearGradient><linearGradient id="ePqkzB5Xv7068-fill" x1="797.667834" y1="673.883098" x2="826.238094" y2="592.139874" spreadMethod="pad" gradientUnits="userSpaceOnUse" gradientTransform="translate(0 0)"><stop id="ePqkzB5Xv7068-fill-0" offset="0%" stop-color="#081221"/><stop id="ePqkzB5Xv7068-fill-1" offset="51%" stop-color="#382c2c"/><stop id="ePqkzB5Xv7068-fill-2" offset="100%" stop-color="#58467f"/></linearGradient><linearGradient id="ePqkzB5Xv7071-fill" x1="975.14" y1="456.38" x2="885.05" y2="644.55" spreadMethod="pad" gradientUnits="userSpaceOnUse" gradientTransform="translate(0 0)"><stop id="ePqkzB5Xv7071-fill-0" offset="0%" stop-color="#f3ac9a"/><stop id="ePqkzB5Xv7071-fill-1" offset="85%" stop-color="#e98"/></linearGradient><linearGradient id="ePqkzB5Xv7079-fill" x1="601.196351" y1="723.655042" x2="806.336348" y2="723.619239" spreadMethod="pad" gradientUnits="userSpaceOnUse" gradientTransform="translate(0 0)"><stop id="ePqkzB5Xv7079-fill-0" offset="0%" stop-color="#382c2c"/><stop id="ePqkzB5Xv7079-fill-1" offset="96%" stop-color="#604c94"/></linearGradient><linearGradient id="ePqkzB5Xv7080-fill" x1="631.52" y1="749.67" x2="708.91" y2="705" spreadMethod="pad" gradientUnits="userSpaceOnUse" gradientTransform="translate(0 0)"><stop id="ePqkzB5Xv7080-fill-0" offset="0%" stop-color="#2d6ef5"/><stop id="ePqkzB5Xv7080-fill-1" offset="49%" stop-color="#0a1220"/></linearGradient><linearGradient id="ePqkzB5Xv7081-fill" x1="720.08" y1="716.14" x2="773.53" y2="716.14" spreadMethod="pad" gradientUnits="userSpaceOnUse" gradientTransform="translate(0 0)"><stop id="ePqkzB5Xv7081-fill-0" offset="0%" stop-color="#081221"/><stop id="ePqkzB5Xv7081-fill-1" offset="100%" stop-color="#382c2c"/></linearGradient><linearGradient id="ePqkzB5Xv7082-fill" x1="642.12" y1="639.97" x2="744.81" y2="639.97" spreadMethod="pad" gradientUnits="userSpaceOnUse" gradientTransform="translate(0 0)"><stop id="ePqkzB5Xv7082-fill-0" offset="0%" stop-color="#081221"/><stop id="ePqkzB5Xv7082-fill-1" offset="100%" stop-color="#382c2c"/></linearGradient><linearGradient id="ePqkzB5Xv7083-fill" x1="642.12" y1="639.97" x2="744.81" y2="639.97" spreadMethod="pad" gradientUnits="userSpaceOnUse" gradientTransform="translate(0 0)"><stop id="ePqkzB5Xv7083-fill-0" offset="0%" stop-color="#081221"/><stop id="ePqkzB5Xv7083-fill-1" offset="100%" stop-color="#382c2c"/></linearGradient><linearGradient id="ePqkzB5Xv7087-fill" x1="541.102217" y1="723.665792" x2="654.39822" y2="748.193793" spreadMethod="pad" gradientUnits="userSpaceOnUse" gradientTransform="translate(0 0)"><stop id="ePqkzB5Xv7087-fill-0" offset="0%" stop-color="#f3ac9a"/><stop id="ePqkzB5Xv7087-fill-1" offset="100%" stop-color="#df5e55"/></linearGradient><linearGradient id="ePqkzB5Xv7088-fill" x1="596.164821" y1="657.595919" x2="655.510803" y2="691.865562" spreadMethod="pad" gradientUnits="userSpaceOnUse" gradientTransform="translate(0 0)"><stop id="ePqkzB5Xv7088-fill-0" offset="4%" stop-color="#5c4f90"/><stop id="ePqkzB5Xv7088-fill-1" offset="61%" stop-color="#0b121f"/></linearGradient><linearGradient id="ePqkzB5Xv70100-fill" x1="654.58" y1="729.28" x2="727.23" y2="656.63" spreadMethod="pad" gradientUnits="userSpaceOnUse" gradientTransform="translate(0 0)"><stop id="ePqkzB5Xv70100-fill-0" offset="18%" stop-color="#f3ac9a"/><stop id="ePqkzB5Xv70100-fill-1" offset="100%" stop-color="#df5e55"/></linearGradient><linearGradient id="ePqkzB5Xv70105-fill" x1="674.98" y1="615.67" x2="727.46" y2="615.67" spreadMethod="pad" gradientUnits="userSpaceOnUse" gradientTransform="translate(0 0)"><stop id="ePqkzB5Xv70105-fill-0" offset="0%" stop-color="#382c2c"/><stop id="ePqkzB5Xv70105-fill-1" offset="96%" stop-color="#604c94"/></linearGradient><linearGradient id="ePqkzB5Xv70106-fill" x1="665.1" y1="533.46" x2="769.11" y2="533.46" spreadMethod="pad" gradientUnits="userSpaceOnUse" gradientTransform="translate(0 0)"><stop id="ePqkzB5Xv70106-fill-0" offset="0%" stop-color="#df5e55"/><stop id="ePqkzB5Xv70106-fill-1" offset="100%" stop-color="#f3ac9a"/></linearGradient><linearGradient id="ePqkzB5Xv70109-fill" x1="665.1" y1="533.46" x2="769.11" y2="533.46" spreadMethod="pad" gradientUnits="userSpaceOnUse" gradientTransform="translate(0 0)"><stop id="ePqkzB5Xv70109-fill-0" offset="0%" stop-color="#df5e55"/><stop id="ePqkzB5Xv70109-fill-1" offset="100%" stop-color="#f3ac9a"/></linearGradient><linearGradient id="ePqkzB5Xv70112-fill" x1="742.79" y1="526.74" x2="766.66" y2="521.67" spreadMethod="pad" gradientUnits="userSpaceOnUse" gradientTransform="translate(0 0)"><stop id="ePqkzB5Xv70112-fill-0" offset="0%" stop-color="#f3ac9a"/><stop id="ePqkzB5Xv70112-fill-1" offset="100%" stop-color="#fdf3c4"/></linearGradient><linearGradient id="ePqkzB5Xv70114-fill" x1="-0.018133" y1="1.13365" x2="0.498251" y2="0.375192" spreadMethod="pad" gradientUnits="objectBoundingBox" gradientTransform="translate(0 0)"><stop id="ePqkzB5Xv70114-fill-0" offset="0%" stop-color="#0c0610"/><stop id="ePqkzB5Xv70114-fill-1" offset="100%" stop-color="#573d3d"/></linearGradient><radialGradient id="ePqkzB5Xv70115-fill" cx="0" cy="0" r="0.803193" spreadMethod="pad" gradientUnits="objectBoundingBox" gradientTransform="matrix(1 0 0 1.75322 0.470748 0.041337)"><stop id="ePqkzB5Xv70115-fill-0" offset="0%" stop-color="#000913"/><stop id="ePqkzB5Xv70115-fill-1" offset="100%" stop-color="#2a67e3"/></radialGradient><radialGradient id="ePqkzB5Xv70119-fill" cx="0" cy="0" r="1.10601" spreadMethod="pad" gradientUnits="objectBoundingBox" gradientTransform="matrix(1 0 0 1.12231 0.342049 0.0302)"><stop id="ePqkzB5Xv70119-fill-0" offset="0%" stop-color="#3a88d4"/><stop id="ePqkzB5Xv70119-fill-1" offset="100%" stop-color="#164aa2"/></radialGradient><radialGradient id="ePqkzB5Xv70121-fill" cx="0" cy="0" r="0.803193" spreadMethod="pad" gradientUnits="objectBoundingBox" gradientTransform="matrix(1 0 0 1.75322 0.470748 0.041337)"><stop id="ePqkzB5Xv70121-fill-0" offset="0%" stop-color="#fff"/><stop id="ePqkzB5Xv70121-fill-1" offset="100%" stop-color="#2a67e3"/></radialGradient><linearGradient id="ePqkzB5Xv70123-fill" x1="731.13" y1="554.43" x2="767" y2="554.43" spreadMethod="pad" gradientUnits="userSpaceOnUse" gradientTransform="translate(0 0)"><stop id="ePqkzB5Xv70123-fill-0" offset="0%" stop-color="#df5e55"/><stop id="ePqkzB5Xv70123-fill-1" offset="100%" stop-color="#f3ac9a"/></linearGradient><linearGradient id="ePqkzB5Xv70124-fill" x1="739.5" y1="563.46" x2="762.06" y2="563.46" spreadMethod="pad" gradientUnits="userSpaceOnUse" gradientTransform="translate(0 0)"><stop id="ePqkzB5Xv70124-fill-0" offset="0%" stop-color="#df5e55"/><stop id="ePqkzB5Xv70124-fill-1" offset="100%" stop-color="#f3ac9a"/></linearGradient><linearGradient id="ePqkzB5Xv70128-fill" x1="529.38" y1="594.99" x2="737.28" y2="454.76" spreadMethod="pad" gradientUnits="userSpaceOnUse" gradientTransform="translate(0 0)"><stop id="ePqkzB5Xv70128-fill-0" offset="0%" stop-color="#c88eda"/><stop id="ePqkzB5Xv70128-fill-1" offset="100%" stop-color="#eeeded"/></linearGradient><linearGradient id="ePqkzB5Xv70130-fill" x1="524.86" y1="586.43" x2="719.95" y2="454.84" spreadMethod="pad" gradientUnits="userSpaceOnUse" gradientTransform="translate(0 0)"><stop id="ePqkzB5Xv70130-fill-0" offset="0%" stop-color="#c88eda"/><stop id="ePqkzB5Xv70130-fill-1" offset="100%" stop-color="#eeeded"/></linearGradient><linearGradient id="ePqkzB5Xv70131-fill" x1="-0.080123" y1="0.936992" x2="1.161893" y2="0.130326" spreadMethod="pad" gradientUnits="objectBoundingBox" gradientTransform="translate(0 0)"><stop id="ePqkzB5Xv70131-fill-0" offset="0%" stop-color="#9f5ec0"/><stop id="ePqkzB5Xv70131-fill-1" offset="100%" stop-color="#c499d5"/></linearGradient><linearGradient id="ePqkzB5Xv70133-fill" x1="498.64" y1="615.22" x2="737.04" y2="454.41" spreadMethod="pad" gradientUnits="userSpaceOnUse" gradientTransform="translate(0 0)"><stop id="ePqkzB5Xv70133-fill-0" offset="0%" stop-color="#c88eda"/><stop id="ePqkzB5Xv70133-fill-1" offset="59%" stop-color="#eeeded"/></linearGradient><linearGradient id="ePqkzB5Xv70135-fill" x1="527.4" y1="629.71" x2="759.74" y2="473" spreadMethod="pad" gradientUnits="userSpaceOnUse" gradientTransform="translate(0 0)"><stop id="ePqkzB5Xv70135-fill-0" offset="0%" stop-color="#c88eda"/><stop id="ePqkzB5Xv70135-fill-1" offset="59%" stop-color="#eeeded"/></linearGradient><radialGradient id="ePqkzB5Xv70139-fill" cx="0" cy="0" r="45.78" spreadMethod="pad" gradientUnits="userSpaceOnUse" gradientTransform="matrix(0.95 0 0 1 735.857 835.13)"><stop id="ePqkzB5Xv70139-fill-0" offset="0%" stop-color="#380d78"/><stop id="ePqkzB5Xv70139-fill-1" offset="100%" stop-color="#081221"/></radialGradient></defs><g><g transform="translate(721.694 768.443)"><path d="M411.511764,1447.247475c-119.122279-55.914234-199.476148-173.334126-131.643572-323.03517c100.141203-221.019649,470.213898-170.594329,494.003384,49.083379c18.262243,168.674607-241.489021,233.907881-398.787158,102.593301C194.667057,1125.311952,190.412343,597.202008,602.187065,572.84204C805.675077,560.81116,882.920479,849.263376,733.47122,940.739064c-108.028938,66.165177-244.675199,41.106281-358.386802-21.620171-181.835599-100.291498-204.964535-362.053987-88.707874-542.004631c170.781113-264.241353,525.117195-271.649989,648.445618-86.415449c181.806456,273.047845-258.313597,480.638759-389.947455,230.71145-233.416721-443.19486,610.44461-665.631004,717.395298-110.896565c68.901111,357.394467-321.269765,534.102086-386.40186,365.697731-80.713285-208.690561,347.759732-243.152367,442.898246,86.21975c69.998788,242.416163-247.511675,419.962495-351.451036,242.416163-112.837348-192.745685,265.676778-330.40653,359.134777-53.649708c67.094315,198.691232-178.493996,391.679212-479.986141,339.213022-525.700032-91.419773-592.910914-681.734303-307.73822-666.236741c339.93028,18.479655-28.034486,999.000988-389.02463,619.548355-155.569053-163.539816-63.859566-478.131937,74.943194-646.806544" transform="translate(-721.694-768.443)" fill="none" stroke="#444994" stroke-width="3" stroke-linecap="round" stroke-miterlimit="10" stroke-dasharray="0,296.91"/></g><g transform="translate(764.615 792.541)"><g id="ePqkzB5Xv706_tr" transform="translate(-5.922915,12.094433) rotate(180)"><path d="M225.077552,209.009347c89.727839-102.304411,229.754558-147.949064,353.092695-33.26897c177.25061,164.788568,14.211522,503.22811-200.418402,457.406395-164.826456-35.151415-145.272256-304.061607,27.636214-413.61623C603.756815,93.872619,1037.118242,577.75725,1037.118242,577.75725s-387.734962,260.827738-427.40677,89.292186c-28.675607-124.008453,37.573593-246.954535,132.216696-336.202972c151.343481-142.711765,405.489789-83.2097,538.949872,84.225475c195.959694,245.864207,92.399178,587.248566-120.802794,647.468196-314.295143,88.773166-372.792604-397.149488-95.964201-445.123901c490.885203-85.092146,437.419573,791.820112-119.238846,721.079286-358.619938-45.570101-403.57614-474.068836-224.392453-483.853827c222.051389-12.114751,120.861078,408.658501-219.535473,396.916512-250.49386-8.648069-318.909273-367.85043-118.995997-411.948122c217.019557-47.843947,228.773448,357.319915-61.450505,360.404516C112.143065,1202.232531,6.727182,907.005373,150.26064,634.889432c250.289867-474.544107,828.105289-354.701265,724.515631-86.667063C751.272996,867.781538,-58.880897,209.726913,411.72156,-17.312836C615.384424,-115.563465,884.937072,72.33632,999.892062,258.53072" transform="translate(-761.39,-653.28)" fill="none" stroke="#fff" stroke-width="8" stroke-linecap="round" stroke-miterlimit="10" stroke-dasharray="0,296.964"/></g></g><g id="ePqkzB5Xv707_to" transform="translate(289.391663,876.193622)"><g transform="scale(0.733169,0.733169) translate(0,0)"><ellipse rx="66.27" ry="69.58" opacity="0.2" fill="url(#ePqkzB5Xv708-fill)"/></g></g><g id="ePqkzB5Xv709_to" transform="translate(290.930606,875.507017)"><g transform="scale(0.733169,0.733169) translate(0,0)"><ellipse rx="31.78" ry="33.37" fill="url(#ePqkzB5Xv7010-fill)"/></g></g><g transform="matrix(.576432 0 0 0.576432 1269.7 247.06)"><ellipse rx="10.78" ry="11.32" fill="url(#ePqkzB5Xv7012-fill)"/></g><g transform="matrix(.576432 0 0 0.576432 446.984 963.744)"><ellipse rx="15.54" ry="16.32" transform="translate(.000015 0)" fill="url(#ePqkzB5Xv7014-fill)"/></g><g transform="matrix(.576432 0 0 0.576432 1232.82 582.52)"><ellipse rx="15.54" ry="16.32" transform="translate(.000061 0)" fill="url(#ePqkzB5Xv7016-fill)"/></g><g id="ePqkzB5Xv7017_to" transform="translate(119.696908,698.941848)"><g transform="scale(0.576432,0.576432) translate(8.082151,-154.337008)"><ellipse rx="15.54" ry="16.32" fill="url(#ePqkzB5Xv7018-fill)"/></g></g><g transform="matrix(1.25535 0 0 1.25535-212.997-375.801)"><g transform="matrix(.371945 0 0 0.371945 1217.28 878.75)"><ellipse rx="61.43" ry="64.49" transform="translate(.000061 0)" opacity="0.2" fill="url(#ePqkzB5Xv7021-fill)"/></g><g transform="matrix(.452927 0 0 0.452927 1217.28 878.75)"><ellipse rx="31.78" ry="33.37" fill="url(#ePqkzB5Xv7023-fill)"/></g></g><g id="ePqkzB5Xv7024_to" transform="translate(-149.118112,-13.940987)"><g transform="translate(0,0)"><g transform="matrix(.579296 0 0 0.579296 527.99 235.74)"><ellipse rx="145.67" ry="152.94" transform="translate(-.000031 0)" opacity="0.2" fill="url(#ePqkzB5Xv7026-fill)"/></g><g transform="matrix(.733169 0 0 0.733169 527.99 235.74)"><ellipse rx="73.74" ry="77.41" transform="translate(0-.000008)" fill="url(#ePqkzB5Xv7028-fill)"/></g></g></g></g><g><path d="M1500,573.29957c-94.927105-295.45018-515.935189-422.023057-662.956078-220.161102-124.701975,171.217741-2.823815,366.559415,84.106489,440.322204c80.744567,68.514019,239.897461,101.790832,298.034829,13.003202s-13.102315-237.663978-158.232786-303.210469C841.048473,403.936327,408.27964,518.110168,275.509426,748.933707c-68.855635,119.706829-33.999278,280.974818,108.843691,343.847115c275.143518,121.10435,530.707206-203.032896,821.275122-24.737203c218.008734,133.772575,163.41523,403.023541,98.94881,531.956381" fill="none" stroke="#1041a5" stroke-width="12" stroke-linecap="round" stroke-linejoin="round" stroke-dashoffset="5972" stroke-dasharray="600,4772"/><path d="M1500,573.29957c-94.927105-295.45018-515.935189-422.023057-662.956078-220.161102-124.701975,171.217741-2.823815,366.559415,84.106489,440.322204c80.744567,68.514019,239.897461,101.790832,298.034829,13.003202s-13.102315-237.663978-158.232786-303.210469C841.048473,403.936327,408.27964,518.110168,275.509426,748.933707c-68.855635,119.706829-33.999278,280.974818,108.843691,343.847115c275.143518,121.10435,530.707206-203.032896,821.275122-24.737203c218.008734,133.772575,163.41523,403.023541,98.94881,531.956381" fill="none" stroke="#3678ff" stroke-width="12" stroke-linecap="round" stroke-linejoin="round" stroke-dashoffset="5172" stroke-dasharray="200,4772"/></g><g transform="matrix(1.02642 0.158284-.136814 0.887199 74.0159 29.169)"><path d="M330.384299,475.692916c30.213573-105.511385,481.15979-374.196075,610.847059-153.893293s-552.710752,708.047521-628.12095,522.325604c-68.228152-168.033814,656.661355-388.446796,808.283585-75.933425s-200.911635,698.24428-583.152403,549.595093" transform="matrix(.996439-.084314 0.066616 0.787278-55.3595 247.255)" fill="none" stroke="#5200c1" stroke-width="12" stroke-linecap="round" stroke-dashoffset="200" stroke-dasharray="200,3663"/><path d="M330.384299,475.692916c30.213573-105.511385,481.15979-374.196075,610.847059-153.893293s-552.710752,708.047521-628.12095,522.325604c-68.228152-168.033814,656.661355-388.446796,808.283585-75.933425s-200.911635,698.24428-583.152403,549.595093" transform="matrix(.996439-.084314 0.066616 0.787278-55.3595 247.255)" fill="none" stroke="#58e9ff" stroke-width="12" stroke-linecap="round" stroke-dashoffset="80" stroke-dasharray="80,3663"/></g><g transform="translate(778.79 814.401)"><g transform="matrix(.999923 0.012441-.012441 0.999923 0 0)"><g transform="matrix(.96 0 0 0.96-807.98-794.032)"><g transform="translate(754.267058 904.444679)"><g><g id="ePqkzB5Xv7040_to" transform="translate(-756.443,-904.47)"><g id="ePqkzB5Xv7040_tr" transform="rotate(0)"><g transform="translate(0,0)"><g id="ePqkzB5Xv7041_tr" transform="translate(776.325,928.876) rotate(8.924363)"><g transform="translate(0,0)"><g transform="translate(-776.325-928.876)"><g><path d="M968.92,1344.58c1.88-19.2,12.62-37.72,12.62-37.72c11.63,7.42,26.65,8.4,39.5,7.86c4.82,8.5,29.28,15.57,33.1,10.47-7.08-3.37-33-11.47-19.27-32.84l26.15,21c0,0,47.15,20.43,54.86,36.51c1.78,3.71,1.7,6.94,1,12.78-.26,2.64-148.3-14.58-147.96-18.06Z" fill="#2d6ef5"/><path d="M968.92,1344.58c-.384399,3.256701.055745,6.557786,1.28,9.6.743331,1.592346,2.255456,2.688637,4,2.9l136,17c2.759084.300694,5.268-1.618406,5.7-4.36.37-2,.77-4.46,1.06-7.06Z" fill="url(#ePqkzB5Xv7045-fill)"/><polygon points="1030.93,1303.02 1095.23,1345.52 983.47,1330.63 981.54,1306.86 1030.93,1303.02" fill="url(#ePqkzB5Xv7046-fill)"/></g><polygon points="981.54,1306.86 980.05,1245.59 1024.11,1256.79 1030.93,1303.02 981.54,1306.86" fill="#de826b"/><path d="M704.56,987.42c0,0,68.751784-97.250886,72.741784-118.810886C839.243442,883.223956,998.76,973.84,1016.97,1004.35c29,48.59,19.72,258.33,15.89,270s-54.23,9.6-55.81,1.1l-20.28-192.11c-.685056-7.415918-5.607492-13.762038-12.62-16.27-33.46-11.43-131.89-44.64-167.28-52.32-42.87-9.34-72.31-27.33-72.31-27.33Z" fill="url(#ePqkzB5Xv7048-fill)"/><path d="M1017,1004.35c-3.75-6.29-13.07-15-26-25-24.82,36,3,79.43,39.78,74.93-3.13-21.69-7.59-39.52-13.78-49.93Z" fill="url(#ePqkzB5Xv7049-fill)"/></g></g></g><path d="M693.725003,863.948943c28.84-22.5,60.161968-27.387105,78.291968-17.107105s51.853029,48.578162,39.263029,89.118162c-12.74,41-130.17,40.35-130.17,40.35s-35.814372-32.907116,12.615003-112.361057Z" fill="url(#ePqkzB5Xv7050-fill)"/><path d="M772.57,991.07C737.52,1020,688,1015,662.08,980.19s-19.131567-86.100966,11.045498-120.740581C702.805498,835.119419,734.13,832.93,762.06,835.11c5.13.42,47.3,125.59,10.51,155.96Z" fill="url(#ePqkzB5Xv7051-fill)"/><g id="ePqkzB5Xv7052_tr" transform="translate(716.717,938.095) rotate(-8.06574)"><g transform="translate(0,0)"><g transform="translate(-716.717-938.095)"><polygon points="634,1331.94 677.72,1291.34 697.89,1333.96 668.56,1369.18 634,1331.94" fill="#de826b"/><g><path d="M598.36,1346.06c15.22-10.84,35.64-14.12,35.64-14.12c2.06,14.12,11,26.83,19.67,36.82-3.1,9.33,7.47,33.55,13.65,33.34-2.09-7.86-12.88-33.93,11.55-36.62l1.48,34.56c0,0,15.42,51,8.66,67.59-1.56,3.81-4,5.83-8.66,9-2.08,1.48-84.74-128.63-81.99-130.57Z" fill="#2d6ef5"/><polygon points="668.56,1369.18 678.92,1448.21 617.9,1348.78 634,1331.94 668.56,1369.18" fill="url(#ePqkzB5Xv7057-fill)"/><path d="M598.37,1346.06c-2.660134,1.815891-4.792316,4.303437-6.18,7.21-.685137,1.666895-.513416,3.563289.46,5.08l75,120.24c.673131,1.14365,1.773291,1.972797,3.058134,2.304793s2.648962.139605,3.791866-.534793c1.7-1,3.74-2.25,5.83-3.68Z" fill="url(#ePqkzB5Xv7058-fill)"/></g><path d="M869.27,1134.59c4.65,72.52-156.56,202.51-175.9,214.19-19-.8-40-24.4-38-42.56c25.65-35.09,93.45-124,117.84-156.91c6.069422-8.272594,5.798319-19.597309-.66-27.57-26.84-32.67-94.72-116.37-119.09-156.49c55.58-11.1,128.33-67.18,128.33-67.18s83.26,170.76,87.48,236.52Z" fill="url(#ePqkzB5Xv7059-fill)"/><path d="M869.27,1134.59c-.58-9.13-2.7-20.29-5.9-32.73-50.2,12.48-60.37,71.73-23.9,105.33v0c18.76-26.19,31.14-51.76,29.8-72.6Z" fill="url(#ePqkzB5Xv7060-fill)"/></g></g></g></g></g></g></g></g><g id="ePqkzB5Xv7061_to" transform="translate(737.511,839.512)"><g id="ePqkzB5Xv7061_tr" transform="rotate(0)"><g transform="translate(0,0)"><g transform="translate(-739.434-829.237)"><g id="ePqkzB5Xv7063_tr" transform="translate(751.929,639.601) rotate(12.315384)"><g transform="translate(0,0)"><g transform="matrix(.947307 0.320328-.320328 0.947307-.000001 0)"><g transform="translate(-757.861-640.237)"><path d="M767.41,611.87v0c-.213217-2.852883,1.909597-5.345852,4.76-5.59l10.33-.61c2.852052-.089805,5.237586,2.148031,5.33,5v0c.282779,3.978908-2.676451,7.449885-6.65,7.8l-6.34.37c-1.909826.061984-3.765963-.637753-5.159576-1.945086s-2.210389-3.115026-2.270424-5.024914Z" transform="translate(-.215331-1.40631)" fill="#2c52aa"/><path d="M917.91,634.68v0c1,18-12.13,33.32-29.24,34.33l-128.766639,6.730493q-27.730091-.254367-32.832068-30.65195c-.95-18,12.13-33.32,29.24-34.32L885.24,604c17.07-1,31.76,12.73,32.67,30.68Z" fill="url(#ePqkzB5Xv7067-fill)"/><path d="M728.51,647.19v0c1.42,18,16.5,31.47,33.69,30l63.11-4.39-4.238776-65.528841L754.81,610.69c-17.19,1.45-27.72,18.46-26.3,36.5Z" fill="url(#ePqkzB5Xv7068-fill)"/><g transform="matrix(.996836 0.079487-.079487 0.996836 888.954 639.25)"><g transform="translate(-888.954-639.25)"><path d="M870.494937,594.076903L940.11,454.76c4.36-9.74,15.41-13.92,24.68-9.34c8.55,4.22,12.6,14.43,9.75,23.63q-33.980372,107.051596-48.323688,152.999837c-5.104791,16.352997-19.398497,27.573001-41.240709,19.439479s-20.601864-34.503211-14.480666-47.412413Z" transform="translate(-9.0427 23.0959)" fill="url(#ePqkzB5Xv7071-fill)"/><g transform="matrix(.766616-.642106 0.642106 0.766616 951.265 489.202)"><g transform="translate(-951.265-489.202)"><g transform="translate(959.664 440.493)"><path d="M963.3,414.63l22.25-43.81c.604692-1.250781,1.696158-2.198628,3.019345-2.622048s2.762157-.285313,3.980655.382048c2.333713,1.353264,3.36512,4.182266,2.45,6.72l-16.58,46.49c-.696195,2.129731-2.233566,3.881814-4.254727,4.848949s-4.350048,1.065074-6.445273.271051c-4.363812-1.840136-6.508942-6.78671-4.87-11.23.131712-.357558.281915-.70803.45-1.05Z" transform="translate(-968.707-417.397)" fill="#f3ac9a"/></g><path d="M1000,414.61c-5.44,8-12.44,16.7-12.44,16.7s12.33-41.67,17.33-55.75-1.55-19.79-9.85-8.82-49.26,74.7-49.26,74.7c-20.44,33.67,31.08,57.06,52.66,16.81c0,0,7.34-18,13-36c4.26-13.71-5.69-16.11-11.44-7.64Z" transform="translate(-9.0427 23.0959)" fill="#f3ac9a"/></g></g></g></g></g></g></g></g><g><path d="M-9.6698,-103.949577l105.834211,5.80321L108.300003,81.75C48.011637,66.55297,-29.013673,132.371444,-70.404843,94.181592C-3.328355,62.44026,12.308994,-37.157726,-9.6698,-103.949577Z" transform="translate(636.37 566.89)" fill="#9f5ec0"/><path d="M757.42,611.23c19.51,17.27,34.35,51.35,43.17,68.32c17.63,33.93-26.193868,146.193468-26.193868,146.193468L668.011154,840.503386C654.631154,792.373386,630.77,758.7,616,719.68c-11.56-30.44-13.102298-66.493556,7.334703-82.911339C656.226311,610.345641,742.6,606.46,757.42,611.23Z" fill="url(#ePqkzB5Xv7079-fill)"/><path d="M709.43,794.72c-6.75-6.05-29.73-18.83-23.15-47.41s9-102.4-42.23-118.87l32.337273-13.437012c-15.881788,3.15627-40.67755,11.693056-54.591343,22.797588C601.575226,653.938624,604.5,689.53,615.97,719.64c14.81,39,38.671154,72.693386,52.051154,120.823386L705.16,833c3.34-1.88,5.86-3.35,7.11-4.18c8.65-5.68,3.9-28.05-2.84-34.1Z" fill="url(#ePqkzB5Xv7080-fill)"/><path d="M735.24,669.86c-3.626163,17.037162-8.697852,33.734259-15.16,49.91c9.53,8.69,21.44,24.34,34.27,42.65c10.09-19.18,16.54-38.7,19.18-58.59-9.44-11.98-22.61-23.22-38.29-33.97Z" fill="url(#ePqkzB5Xv7081-fill)"/><path d="M741.868709,609.533314C753.221435,616.7777,735.39,670.5,735.39,670.5s-69.17091-52.018894-94.919894-43.805293c8.198315-3.701174,32.032333-13.212742,60.028787-15.774068s38.568904-1.556619,41.369816-1.387325Z" fill="url(#ePqkzB5Xv7082-fill)"/><path d="" fill="url(#ePqkzB5Xv7083-fill)"/></g><g id="ePqkzB5Xv7084_tr" transform="translate(630.907,664.344) rotate(7.432689)"><g transform="translate(0,0)"><g><g transform="translate(-630.907-664.344)"><path d="M540.93,839.33v0c-15.06-8.55-20.68-28.3-12.53-44.12l75.87-147.35c8.14-15.82,27-21.71,42-13.16v0c15.07,8.55,20.68,28.3,12.54,44.12L583,826.17c-8.18,15.83-27,21.71-42.07,13.16Z" fill="url(#ePqkzB5Xv7087-fill)"/><path d="M646.4,633v0c-15.76-9-35.44-2.78-44,13.77c0,0-10.88,22-23.93,50.23c9.68,3.34,45.33,19.87,53.72,35.16l27.29-53C668,662.6,662.16,641.94,646.4,633Z" fill="url(#ePqkzB5Xv7088-fill)"/><rect width="41.7317" height="22.0563" rx="11.56" ry="11.56" transform="matrix(.941738 0.336348-.336348 0.941738 590.734 649.284)" fill="#2d6ef5" stroke-width="0"/><g transform="translate(555.56 811.826)"><g transform="translate(-555.56-811.826)"><path d="M542.28,784.21l112.4-65.88c9-5.25,20.28-1.88,25.29,7.53c4.396091,8.270004,2.524318,18.477791-4.52,24.65q-68.09791,60.791334-99.028562,85.187961c-18.537965,14.621865-37.077965,4.646453-45.687299-6.289994s-10.493637-31.551819,11.545861-45.197967Z" fill="#f3ac9a"/><g transform="translate(667.004 733.796)"><g transform="translate(-667.004-733.796)"><g transform="translate(673.816 735.693)"><path d="M667.67,726l42.58-29.4c4.108024-2.571685,8.327792-1.009323,10.24,2.21c1.968439,3.165507,1.509407,7.267851-1.11,9.92l-37.1,36.69c-6.408053,6.510972-11.947583,3.494382-16.73-.53-4.471097-5.074058-5.873265-12.404383,2.12-18.89Z" transform="translate(-676.291-735.629)" fill="#f3ac9a"/></g><path d="M687.73,703.5c0,0,15.51-37.77,20.52-51.85s-7-25.41-15.31-14.44-37.57,55.94-47,76.42c-3,6.52-8.33,24.38,7.81,27.77s28.8-19.03,33.98-37.9Z" fill="#f3ac9a"/><g transform="matrix(.989971 0.141273-.141273 0.989971 665.12 691.854)"><path d="M675.45,709.37l10.95-50.43c.450166-2.205482,2.565952-3.658433,4.785989-3.286631s3.746983,2.434823,3.454011,4.666631l-6,51.25c-.433544,3.672694-3.762306,6.298544-7.435,5.865s-6.298544-3.762306-5.865-7.435c.022502-.212229.059252-.422703.11-.63Z" transform="translate(-682.15-708.469)" fill="#f3ac9a"/></g><path d="M667.584446,747.303741C682.213377,732.385991,668.71,698.38,668.71,698.38c7-16.64,30.995982-57.952548,37.29-53.84.57-5.17.57-8.42-2.28-10.85c4.53,2.15,6.63,9.71,5.56,13.6-.69,6.7-8.061911,25.50668-13.781911,38.81668q-.312087,22.678874-.249379,31.042753c.062707,8.363878-8.434266,31.675845-27.664264,30.154308" fill="url(#ePqkzB5Xv70100-fill)"/></g></g></g></g></g></g></g></g><g transform="translate(705.871 614.365)"><g transform="translate(-700.803-615.188)"><g><path d="M728.15,598.83l-4.1,23c-6.717564,11.183283-45.912867,5.664225-48.262867-9.335775L681.09,557.44c4.53-28.25,43.68215-15.798567,48.319843.432006s1.685667,25.270492-1.259843,40.957994Z" fill="#f3ac9a"/><path d="M677.24938,597.796137l-1.960922,17.241691c8.65,18.36,47.769419,18.50528,49.779419,5.47528l2.731503-19.956971c-1.107046,18.321979-45.397399,15.777399-50.55-2.76Z" fill="url(#ePqkzB5Xv70105-fill)"/><path d="M730.50784,591.319428c-5.860186-36.362492-40.323044-47.950379-45.673044-43.610379s-4.13898,11.730202-7.138753,45.195463c-1.489964,16.621938,41.561797,4.884916,52.811797-1.585084Z" fill="url(#ePqkzB5Xv70106-fill)"/></g><g transform="translate(702.441 545.758)"><g transform="translate(-702.441-545.758)"><path d="M671.06,477.07c-28.484379,13.555937-41.783534,69.054853,5.199128,98.9288c6.341334,6.774194,18.467626,12.166141,27.640936,15.667417c17.960264,6.855089,50.888433-1.096749,55.409936-4.216217c6.536774-3.877345,10.46-26.55,9.73-42.63s-4.38-33.71-7-44.17-9.71-29.62-12.76-32.43C741.56,470,736,462.35,736,462.35c-14.6,6.89-59.59,10.38-64.94,14.72Z" fill="url(#ePqkzB5Xv70109-fill)"/><path d="M740.17,448.15c0,0,7.27-4.7,13.94,0c16.89,11.91,13.47,47.64-5.05,50.76Z" fill="#caa7da"/><path d="M696.65,573.45c10.49,11.87,48.31,19.16,62.66,14c5.47-2,10.46-26.55,9.73-42.63s-4.38-33.71-7-44.17-9.71-29.62-12.76-32.43C741.56,470,736,462.35,736,462.35c-24.66-2.81-49.88,8.42-55.23,12.76s1.97,82.63,15.88,98.34Z" fill="#f3ac9a"/><path d="M762,500.65c-2.68-10.47-9.71-29.62-12.76-32.43-5.72,1.33-10.28-2.58-12.23-4.66c12.47,15.06,10.43,35.35,15,45.29c3.33,3.1,11.65,17.14,12.2,20.77c1.21,8-9.18,8.35-7,14.76c1.08,3.15,8.31,40.53-1.3,44c1.161758-.214698,2.305169-.518939,3.42-.91c5.47-2,10.46-26.55,9.73-42.63s-4.4-33.73-7.06-44.19Z" fill="url(#ePqkzB5Xv70112-fill)"/><g><path d="M775.908108,523.745109c-3.43978,1.477-8.244522,1.722287-12.455878-1.858431-5.61209-4.771697-9.13852-13.904338-11.27942-11.814918-2.29797,6.39227-2.91992,20.85157-17.62533,24.82054-14.96549,4.03917-25.18891-5.2492-31.25454-11.50171-4.04375-4.16835-9.56211-4.84746-16.55507-2.03734l-17.84,12.89q0,0-1.068851-.899117c7.39035-7.34446,14.113161-11.635703,17.909481-14.331243c3.71216-2.63578,10.48698-4.00729,14.84611-3.22641c3.38697.60673,5.63401,3.94687,7.72389,6.00641c5.40317,5.32473,14.8353,12.40322,27.58186,9.50148c15.15778-3.45066,13.13769-22.4707,17.30335-22.91475c4.23376-.45131,22.714398,15.365489,22.714398,15.365489Z" fill="url(#ePqkzB5Xv70114-fill)"/><path d="M663,527.2q11.106357-10.988971,16.959518-15.682528c6.656175-5.337482,13.703181-12.677468,21.723509-15.587402c10.62049-3.853325,25.405233-6.519059,38.230095-5.567458c1.847231.137064,6.024095,2.294168,8.84824,1.710834c2.342678-.483887,2.76426-2.534292,5.36157-3.519121c5.071626-1.923023,10.510313-1.253097,12.603779-.868063c4.828192.888009,10.892028,32.867197,6.729546,33.623665-11.611947,2.110294-17.867502-15.501243-22.602892-14.9105-3.371044.42054-1.039106,18.936477-17.290529,23.055739-12.671935,3.211965-21.874789-3.504633-27.848969-9.763378-2.025958-2.122459-4.735689-5.333851-8.122661-5.940583-4.359123-.78088-10.247804,1.200546-13.95996,3.836323q-5.694477,4.043304-17.358216,13.405218L663,527.2Z" transform="translate(2.3085 2.53289)" fill="url(#ePqkzB5Xv70115-fill)" stroke-width="1.6" stroke-linecap="round" stroke-linejoin="round"/><g mask="url(#ePqkzB5Xv70120)"><g transform="translate(719.808 512.54)"><g transform="matrix(.972113-.234515 0.234515 0.972113 0 0)"><path d="M714.16404,507.20343c4.6236-1.944,11.175324-14.755424,6.032382-24.512903c6.87361-1.12205,21.528188.631327,21.907188.719957c3.857732,21.445524-28.233977,31.719843-15.403151,57.77781-8.87238-.39201-27.070156-9.475316-29.343736-10.736486q-1.128839-14.89598,16.807317-23.248368-3.92932,1.65207,0-.00001Z" transform="translate(-722.793-512.749)" fill="url(#ePqkzB5Xv70119-fill)" stroke-width="1.6" stroke-linecap="round" stroke-linejoin="round"/></g></g><mask id="ePqkzB5Xv70120" mask-type="luminance"><path d="M663,527.2q11.106357-10.988971,16.959518-15.682528c6.656175-5.337482,13.703181-12.677468,21.723509-15.587402c10.62049-3.853325,25.405233-6.519059,38.230095-5.567458c1.847231.137064,6.024095,2.294168,8.84824,1.710834c2.342678-.483887,2.76426-2.534292,5.36157-3.519121c5.071626-1.923023,10.510313-1.253097,12.603779-.868063c4.828192.888009,10.892028,32.867197,6.729546,33.623665-11.611947,2.110294-17.867502-15.501243-22.602892-14.9105-3.371044.42054-1.039106,18.936477-17.290529,23.055739-12.671935,3.211965-21.874789-3.504633-27.848969-9.763378-2.025958-2.122459-4.735689-5.333851-8.122661-5.940583-4.359123-.78088-10.247804,1.200546-13.95996,3.836323q-5.694477,4.043304-17.358216,13.405218L663,527.2Z" transform="translate(2.3085 2.53289)" fill="url(#ePqkzB5Xv70121-fill)" stroke-width="1.6" stroke-linecap="round" stroke-linejoin="round"/></mask></g></g><g><path d="M731.13,555.84c10.93-2.59,30.19-6.84,35.87-4.33-4.48,5.66-20.22,9.16-35.87,4.33Z" fill="url(#ePqkzB5Xv70123-fill)"/><path d="M739.5,562.72c5.33,4,15.29,7.95,22.56-2.69-9.57,7.36-16.84,2.97-22.56,2.69Z" fill="url(#ePqkzB5Xv70124-fill)"/></g><g transform="matrix(1 0 0.017455 1 732.608 458.024)"><g><g transform="translate(-731.607-456.312)"><path d="M725.17,436.81c-15.62-20.89-98.91-9.5-109,26.75-6.41,23-11.71,70.79-16.82,87.18s-54.41,59.37-45.28,118.49c1.724215,1.181761,23.02254,9.098207,23.14873,8.802809c26.216797-61.37071,73.097904-67.751374,79.237248-131.318024C662.289931,486.310155,660.749387,435.507762,725.17,436.81Z" transform="matrix(.999912-.013284 0.013284 0.999912-7.279303 8.537928)" fill="url(#ePqkzB5Xv70128-fill)"/><g transform="translate(692.11 433.06)"><path d="M559.47,637.75c-30.31-53-6.609856-75.766176,4.241077-88.799727c19.810889-23.795766,30.72105-33.415211,40.525371-63.501075c18.60956-57.105914,74.138049-65.903765,104.818861-52.428592l-2.24,10C677.012531,420.382152,622.416425,447.949007,612.35,484.19c-6.402274,23.049369-18.191856,41.608313-41.74,67.52-11.340894,12.479188-33.73,29.81-9.12,83.43Z" transform="matrix(.999997-.002572 0.002572 0.999997-687.655217-425.13372)" fill="url(#ePqkzB5Xv70130-fill)"/></g><path d="M673.590719,504.399278c0,0,9.129281-16.729278,13.129281-25.199278c6.72-14.55,49.24-16.85,49.24-16.85-27.64-35.49-71.089281,4.629278-62.369281,42.049278Z" fill="url(#ePqkzB5Xv70131-fill)"/><g transform="translate(708.824 435.898)"><path d="M528.59,659.63c9.94-58.59,52.15-49.19,65-70.49c8.81-14.57,2.49-70,10.59-92.43c22.38-62.09,95.4-85.38,121-59.9l-2.24,10c-14.3-15.18-73.62-17.48-107,41.67-11.66,20.65,3.43,72.05-14.75,104.52-14.95,26.71-54.76,10.54-64.71,69.13Z" transform="translate(-708.824-435.898)" fill="url(#ePqkzB5Xv70133-fill)"/></g><g transform="translate(741.877 461.448)"><path d="M749.23,468.22c0,0,2.1-37-48-37.09s-59.13,53.18-57.67,109.35-82.92,76.08-89.49,128.75c-.278127.214066,23.14873,8.802809,23.14873,8.802809c23.91-36.43,34.533342-41.16235,67.819597-54.316737C672.5247,612.85374,690.01,604.81,677.2,539.82c-10.74-54.51,5.19-77.47,23.77-83.35c24.78-7.83,35,5.88,35,5.88c3.38,5.36,7.85,7.16,13.26,5.87Z" transform="translate(-741.877-461.448)" fill="url(#ePqkzB5Xv70135-fill)"/></g></g></g></g></g></g></g></g></g></g></g></g><g id="ePqkzB5Xv70136_to" transform="translate(737.511,839.512)"><g id="ePqkzB5Xv70136_tr" transform="rotate(0)"><g transform="translate(0,0)"><g transform="matrix(1.00183 0.052408 0.034921 1 0-.000001)"><g><path d="M776.2144,817.696761c0,0,3.556071,28.598743,3.556071,28.598743-37.91,5-80.455803,6.260537-110.545803,16.420537l-3.428027-30.492485c34.67-10.23,76.637759-11.566795,110.417759-14.526795Z" transform="translate(-737.67-835.13)" fill="url(#ePqkzB5Xv70139-fill)"/></g></g></g></g></g></g></g></g><g transform="matrix(1.02642 0.158284-.136814 0.887199 74.0159 29.169)"><path d="M330.384299,475.692916c30.213573-105.511385,481.15979-374.196075,610.847059-153.893293s-552.710752,708.047521-628.12095,522.325604c-68.228152-168.033814,656.661355-388.446796,808.283585-75.933425s-200.911635,698.24428-583.152403,549.595093" transform="matrix(.996439-.084314 0.066616 0.787278-55.3595 247.255)" fill="none" stroke="#5200c1" stroke-width="12" stroke-linecap="round" stroke-dashoffset="200" stroke-dasharray="200,3663"/><path d="M330.384299,475.692916c30.213573-105.511385,481.15979-374.196075,610.847059-153.893293s-552.710752,708.047521-628.12095,522.325604c-68.228152-168.033814,656.661355-388.446796,808.283585-75.933425s-200.911635,698.24428-583.152403,549.595093" transform="matrix(.996439-.084314 0.066616 0.787278-55.3595 247.255)" fill="none" stroke="#58e9ff" stroke-width="12" stroke-linecap="round" stroke-dashoffset="80" stroke-dasharray="80,3663"/></g><path d="" fill="none" stroke="#3f5787" stroke-width="3.2"/><path d="" fill="none" stroke="#3f5787" stroke-width="3.2"/><path d="" fill="none" stroke="#3f5787" stroke-width="3.2"/><path d="" fill="none" stroke="#3f5787" stroke-width="3.2"/></svg>