<?xml version="1.0" standalone="no"?>
<!DOCTYPE svg PUBLIC "-//W3C//DTD SVG 20010904//EN"
        "http://www.w3.org/TR/2001/REC-SVG-20010904/DTD/svg10.dtd">
<svg version="1.0" xmlns="http://www.w3.org/2000/svg"
     width="854.000000pt" height="718.000000pt" viewBox="0 0 854.000000 718.000000"
     preserveAspectRatio="xMidYMid meet">
    <g transform="translate(0.000000,718.000000) scale(0.100000,-0.100000)"
       fill="#ffffff" stroke="none">
        <path d="M7545 7136 c-152 -35 -277 -106 -390 -220 -44 -45 -95 -108 -114
-140 -49 -82 -100 -224 -108 -302 l-8 -67 -335 -228 c-184 -126 -345 -240
-357 -254 -33 -38 -26 -89 16 -122 43 -33 69 -19 371 188 161 110 298 203 305
205 8 3 15 -8 20 -32 11 -63 55 -162 105 -237 201 -305 579 -438 919 -322 323
110 541 414 541 755 0 341 -226 648 -555 756 -67 22 -103 27 -215 30 -91 2
-155 -1 -195 -10z"/>
        <path d="M4120 5755 c-250 -56 -440 -205 -555 -434 -38 -77 -75 -202 -75 -256
0 -20 -8 -39 -22 -52 -13 -11 -170 -120 -349 -242 -341 -231 -358 -246 -344
-304 10 -37 39 -59 78 -59 29 0 87 36 337 206 167 114 304 205 305 204 1 -2 9
-31 18 -66 70 -259 293 -475 567 -549 90 -24 300 -24 390 0 271 74 481 274
565 539 12 38 26 69 31 69 5 -1 141 -91 303 -202 242 -166 299 -201 328 -201
59 0 96 57 74 113 -6 18 -107 93 -320 239 -172 117 -308 217 -304 220 4 4 144
101 311 215 212 145 306 215 313 233 23 59 -16 112 -81 112 -29 0 -84 -34
-330 -204 -162 -113 -298 -201 -301 -198 -3 4 -13 34 -23 67 -76 255 -287 461
-548 535 -97 28 -279 35 -368 15z"/>
        <path d="M725 4379 c-418 -65 -709 -426 -681 -845 14 -199 99 -379 246 -517
311 -294 794 -292 1097 4 104 101 182 233 214 357 7 28 17 52 22 52 5 0 135
-87 290 -193 155 -107 292 -199 304 -205 35 -19 63 -14 94 17 38 38 38 78 1
114 -15 14 -156 114 -312 222 -157 107 -285 201 -285 207 0 7 133 103 295 215
162 111 303 212 313 224 25 32 21 71 -11 102 -51 49 -61 44 -387 -178 -164
-113 -302 -201 -306 -197 -4 4 -14 34 -24 66 -55 196 -219 388 -408 481 -133
65 -324 96 -462 74z"/>
        <path d="M7600 4379 c-209 -32 -414 -157 -529 -323 -59 -85 -104 -179 -122
-252 -7 -27 -13 -51 -15 -53 -2 -2 -139 90 -306 203 -335 229 -344 232 -393
174 -21 -25 -25 -38 -21 -62 4 -17 13 -37 21 -46 9 -8 147 -105 307 -215 160
-110 293 -205 295 -211 2 -5 -129 -101 -291 -212 -162 -111 -304 -214 -315
-228 -29 -37 -26 -70 9 -106 26 -25 37 -30 63 -25 21 3 145 82 332 211 l299
205 21 -72 c71 -248 267 -449 517 -531 234 -78 498 -37 703 109 432 307 448
932 32 1270 -161 130 -401 195 -607 164z"/>
        <path d="M4104 2985 c-276 -60 -508 -278 -589 -552 l-21 -72 -299 205 c-165
112 -309 207 -321 210 -30 8 -75 -15 -93 -47 -16 -29 -10 -66 17 -94 10 -11
170 -123 355 -249 l337 -230 0 -36 c0 -95 60 -253 141 -370 149 -217 427 -354
684 -337 229 16 437 122 575 294 70 87 103 146 141 258 15 44 32 79 38 78 5
-1 141 -93 302 -203 289 -198 315 -212 364 -194 19 8 45 55 45 83 0 36 -48 75
-325 262 -148 100 -280 191 -293 200 -23 17 -21 18 292 233 294 202 316 219
322 251 11 59 -45 115 -101 101 -11 -3 -155 -98 -318 -210 -175 -121 -299
-200 -302 -193 -2 6 -11 37 -20 67 -84 271 -320 488 -594 546 -82 17 -256 17
-337 -1z"/>
        <path d="M7588 1610 c-308 -56 -558 -277 -635 -562 -9 -35 -18 -64 -19 -66 -1
-2 -136 89 -300 202 -249 171 -305 206 -334 206 -44 0 -76 -21 -84 -56 -15
-59 1 -73 360 -320 245 -167 345 -242 348 -257 3 -12 10 -51 16 -87 52 -288
274 -528 567 -612 104 -30 316 -33 408 -5 196 60 353 171 453 321 187 280 188
616 2 899 -97 149 -259 265 -442 318 -82 23 -262 34 -340 19z"/>
    </g>
</svg>
